<svg xmlns="http://www.w3.org/2000/svg" viewBox="0 0 337.91 288.53"><defs><style>.cls-1{fill:#f5f5f5;}.cls-2{fill:#e6e6e6;}.cls-3,.cls-5{fill:#e0e0e0;}.cls-4{fill:#f0f0f0;}.cls-13,.cls-14,.cls-26,.cls-5{opacity:0.4;}.cls-16,.cls-20,.cls-26,.cls-5{isolation:isolate;}.cls-6{fill:#fafafa;}.cls-11,.cls-13,.cls-19,.cls-21,.cls-7{fill:#fff;}.cls-8{fill:#ebebeb;}.cls-9{fill:#407bff;}.cls-10,.cls-11,.cls-12,.cls-20{opacity:0.5;}.cls-15{fill:#7f3e3b;}.cls-16,.cls-24{opacity:0.2;}.cls-17{fill:#263238;}.cls-18{fill:#630f0f;}.cls-19{opacity:0.1;}.cls-21{opacity:0.7;}.cls-22{fill:#a02724;}.cls-23{fill:#b55b52;}.cls-25{opacity:0.3;}</style></defs><title>developers</title><g id="Shadows"><g id="Shadow--inject-214"><ellipse id="path--inject-214" class="cls-1" cx="167.39" cy="279.52" rx="154.26" ry="9.01"/></g></g><g id="Background_Complete" data-name="Background Complete"><path class="cls-2" d="M397.76,326.85H244.14a4.54,4.54,0,0,1-4.54-4.54V106.36a4.55,4.55,0,0,1,4.54-4.5H397.76a4.54,4.54,0,0,1,4.54,4.54h0V322.31A4.54,4.54,0,0,1,397.76,326.85ZM244.14,102a4.34,4.34,0,0,0-4.34,4.34v216a4.35,4.35,0,0,0,4.34,4.35H397.76a4.37,4.37,0,0,0,4.35-4.35V106.36a4.36,4.36,0,0,0-4.35-4.34Z" transform="translate(-239.6 -101.86)"/><path class="cls-2" d="M569.86,326.85H416.23a4.55,4.55,0,0,1-4.55-4.54V106.36a4.56,4.56,0,0,1,4.55-4.5H569.86a4.54,4.54,0,0,1,4.52,4.5v216A4.53,4.53,0,0,1,569.86,326.85ZM416.23,102a4.36,4.36,0,0,0-4.35,4.34v216a4.37,4.37,0,0,0,4.35,4.35H569.86a4.36,4.36,0,0,0,4.34-4.35V106.36a4.35,4.35,0,0,0-4.34-4.34Z" transform="translate(-239.6 -101.86)"/><rect class="cls-3" x="11.29" y="265.31" width="32.79" height="0.2"/><rect class="cls-3" x="78.02" y="263.72" width="32.88" height="0.2"/><rect class="cls-3" x="145.73" y="263.72" width="7.96" height="0.2"/><rect class="cls-3" x="37.37" y="270.52" width="36.8" height="0.2"/><rect class="cls-3" x="184.26" y="265.21" width="17.18" height="0.2"/><rect class="cls-3" x="208.52" y="265.21" width="22.22" height="0.2"/><rect class="cls-3" x="288.23" y="268.58" width="49.68" height="0.2"/><rect class="cls-2" x="258.75" y="44.15" width="37.88" height="26.47"/><rect class="cls-4" x="258.75" y="44.15" width="17.08" height="26.47"/><path class="cls-5" d="M506.88,149.6a5.64,5.64,0,1,1-5.64,5.64A5.63,5.63,0,0,1,506.88,149.6Z" transform="translate(-239.6 -101.86)"/><path class="cls-3" d="M509.63,166.24a2.75,2.75,0,1,1-2.75-2.75h0A2.75,2.75,0,0,1,509.63,166.24Z" transform="translate(-239.6 -101.86)"/><circle class="cls-6" cx="267.23" cy="53.76" r="1.61"/><rect class="cls-4" x="199.38" y="34.67" width="16.38" height="35.96"/><rect class="cls-2" x="215.31" y="34.67" width="21.73" height="35.96"/><path class="cls-7" d="M447.11,148a2.27,2.27,0,1,1-2.26,2.27A2.27,2.27,0,0,1,447.11,148Z" transform="translate(-239.6 -101.86)"/><path class="cls-7" d="M447.11,144.41a1.14,1.14,0,1,1-1.13,1.13A1.14,1.14,0,0,1,447.11,144.41Z" transform="translate(-239.6 -101.86)"/><path class="cls-7" d="M447.11,141A1.14,1.14,0,1,1,446,142.1,1.14,1.14,0,0,1,447.11,141Z" transform="translate(-239.6 -101.86)"/><rect class="cls-3" x="199.75" y="54.84" width="36.92" height="0.57"/><rect class="cls-3" x="199.75" y="58.03" width="36.92" height="0.57"/><rect class="cls-3" x="199.75" y="61.22" width="36.92" height="0.57"/><rect class="cls-3" x="199.75" y="64.41" width="36.92" height="0.57"/><rect class="cls-3" x="199.75" y="67.6" width="36.92" height="0.57"/><rect class="cls-3" x="206.34" y="55.81" width="1.56" height="1.56"/><rect class="cls-3" x="206.34" y="59.17" width="1.56" height="1.56"/><rect class="cls-3" x="206.34" y="62.19" width="1.56" height="1.56"/><rect class="cls-3" x="206.34" y="65.45" width="1.56" height="1.56"/><rect class="cls-3" x="206.34" y="68.62" width="1.56" height="1.56"/><path class="cls-3" d="M407.69,207.9h-.8V177.43a6.21,6.21,0,0,1,6.2-6.21h26.26v.8H413.09a5.41,5.41,0,0,0-5.4,5.41Z" transform="translate(-239.6 -101.86)"/><path class="cls-3" d="M406.09,208h-.79V177.2a7.52,7.52,0,0,1,7.52-7.52h26.53v.79H412.82a6.74,6.74,0,0,0-6.73,6.73Z" transform="translate(-239.6 -101.86)"/><rect class="cls-2" x="54.46" y="29.65" width="24.91" height="26.52"/><rect class="cls-1" x="79.37" y="29.65" width="6.38" height="26.52"/><rect class="cls-2" x="47.93" y="25.56" width="18.71" height="30.61"/><rect class="cls-1" x="66.64" y="25.56" width="5.41" height="30.61"/><rect class="cls-8" x="45.35" y="29.65" width="15.78" height="26.52"/><rect class="cls-1" x="61.13" y="29.65" width="3.6" height="26.52"/><rect class="cls-2" x="27.52" y="34.14" width="20.69" height="22.03"/><rect class="cls-1" x="48.22" y="34.14" width="5.3" height="22.03"/><rect class="cls-2" x="22.1" y="30.74" width="15.55" height="25.43"/><rect class="cls-1" x="37.64" y="30.74" width="4.5" height="25.43"/><rect class="cls-2" x="17.96" y="34.14" width="15.1" height="22.03"/><rect class="cls-4" x="33.07" y="34.14" width="2.99" height="22.03"/><rect class="cls-2" x="239.92" y="158.02" width="162.3" height="7.67" transform="translate(402.53 221.85) rotate(180)"/><polygon class="cls-3" points="29.44 64.01 38.42 64.01 31.88 73.89 29.44 73.89 29.44 64.01"/><rect class="cls-3" x="28.14" y="64.01" width="1.29" height="9.87"/><polygon class="cls-3" points="130.25 64.01 139.22 64.01 132.69 73.89 130.25 73.89 130.25 64.01"/><rect class="cls-3" x="128.95" y="64.01" width="1.29" height="9.87"/><rect class="cls-2" x="172.35" y="70.63" width="162.3" height="7.67"/><polygon class="cls-3" points="305.53 88.36 303.09 88.36 296.55 78.49 305.53 78.49 305.53 88.36"/><rect class="cls-3" x="305.53" y="78.49" width="1.29" height="9.87"/><polygon class="cls-3" points="204.72 88.36 202.28 88.36 195.74 78.49 204.72 78.49 204.72 88.36"/><rect class="cls-3" x="204.72" y="78.49" width="1.29" height="9.87"/><path class="cls-4" d="M365.19,142.56a11.62,11.62,0,0,0-.5-3.36l2.95-2.6-1.86-3.22-3.72,1.26a11.56,11.56,0,0,0-5.83-3.36l-.77-3.86h-3.72l-.77,3.86a11.56,11.56,0,0,0-5.83,3.36l-3.72-1.26-1.86,3.22,2.95,2.6a11.62,11.62,0,0,0-.5,3.36,11.74,11.74,0,0,0,.5,3.37l-2.95,2.59,1.86,3.22,3.72-1.26a11.57,11.57,0,0,0,5.83,3.37l.77,3.85h3.72l.77-3.85a11.57,11.57,0,0,0,5.83-3.37l3.72,1.26,1.86-3.22-2.95-2.59A11.74,11.74,0,0,0,365.19,142.56Zm-11.59,6.26a6,6,0,1,1,6-6A6,6,0,0,1,353.6,148.82Z" transform="translate(-239.6 -101.86)"/><path class="cls-4" d="M385.29,144.51a7.79,7.79,0,0,0-1.44-1.72l.76-2.47-2.15-1.17-1.65,2a7.61,7.61,0,0,0-4.43.11l-1.76-1.9-2.09,1.28.89,2.43a7.62,7.62,0,0,0-2.11,3.89l-2.53.58.07,2.44,2.55.44a7.42,7.42,0,0,0,.87,2.06,7.57,7.57,0,0,0,1.44,1.72l-.77,2.48,2.15,1.16,1.66-2a7.61,7.61,0,0,0,4.43-.12l1.76,1.9,2.09-1.27-.89-2.43a7.69,7.69,0,0,0,2.11-3.9l2.53-.57-.07-2.45-2.55-.44A7.54,7.54,0,0,0,385.29,144.51ZM380.93,152a4,4,0,1,1,1.31-5.45A4,4,0,0,1,380.93,152Z" transform="translate(-239.6 -101.86)"/></g><g id="Desk"><g id="Group"><rect class="cls-9" x="5.53" y="170.57" width="324.3" height="4.08"/><polygon class="cls-9" points="24.85 173.5 24.85 270.83 27.38 270.83 30.56 173.5 24.85 173.5"/><polygon class="cls-9" points="54.72 176.68 54.72 266.85 57.25 266.85 60.43 176.68 54.72 176.68"/><polygon class="cls-10" points="54.72 176.68 54.72 266.85 57.25 266.85 60.43 176.68 54.72 176.68"/><polygon class="cls-9" points="311.67 173.5 311.67 270.83 309.14 270.83 305.95 173.5 311.67 173.5"/><polygon class="cls-9" points="281.81 176.68 281.81 266.85 279.28 266.85 276.1 176.68 281.81 176.68"/><polygon class="cls-10" points="281.81 176.68 281.81 266.85 279.28 266.85 276.1 176.68 281.81 176.68"/><polygon class="cls-9" points="317.44 179.02 18.88 179.02 12.28 174.65 324.04 174.65 317.44 179.02"/><polygon class="cls-10" points="317.44 179.02 18.88 179.02 12.28 174.65 324.04 174.65 317.44 179.02"/></g></g><g id="Beverages"><path class="cls-9" d="M266.45,259.92v3.14a2,2,0,0,0,.58,1.41l2.53,2.52a2,2,0,0,0,.82.49,6.47,6.47,0,0,0,5.87,3.75h.94a6.48,6.48,0,0,0,6.48-6.48v-7.42h-13.9v.6h-1.33A2,2,0,0,0,266.45,259.92Zm1.59,0a.4.4,0,0,1,.4-.4h1.33v5.23c0,.07,0,.14,0,.21l-1.62-1.62a.4.4,0,0,1-.12-.28Z" transform="translate(-239.6 -101.86)"/><path class="cls-11" d="M266.45,259.92v3.14a2,2,0,0,0,.58,1.41l2.53,2.52a2,2,0,0,0,.82.49,6.47,6.47,0,0,0,5.87,3.75h.94a6.48,6.48,0,0,0,6.48-6.48v-7.42h-13.9v.6h-1.33A2,2,0,0,0,266.45,259.92Zm1.59,0a.4.4,0,0,1,.4-.4h1.33v5.23c0,.07,0,.14,0,.21l-1.62-1.62a.4.4,0,0,1-.12-.28Z" transform="translate(-239.6 -101.86)"/><path class="cls-9" d="M287,272.29H267a3.66,3.66,0,0,1-2.35-1.17h24.71A3.7,3.7,0,0,1,287,272.29Z" transform="translate(-239.6 -101.86)"/><path class="cls-11" d="M287,272.29H267a3.66,3.66,0,0,1-2.35-1.17h24.71A3.7,3.7,0,0,1,287,272.29Z" transform="translate(-239.6 -101.86)"/><path class="cls-9" d="M556.06,262.59c-.1-3.15-2.51-3.93-5.65-4.28v-1.16a.5.5,0,0,0-.51-.49H539.06a.51.51,0,0,0-.53.49h0V272.2h11.88v-1.65C553.56,270.2,556,265.76,556.06,262.59Zm-5.65,6v-8.36c2.31.34,3.9.66,3.56,3C553.7,265.06,552.26,268.33,550.41,268.61Z" transform="translate(-239.6 -101.86)"/><g class="cls-12"><path class="cls-7" d="M556.06,262.59c-.1-3.15-2.51-3.93-5.65-4.28v-1.16a.5.5,0,0,0-.51-.49H539.06a.51.51,0,0,0-.53.49h0V272.2h11.88v-1.65C553.56,270.2,556,265.76,556.06,262.59Zm-5.65,6v-8.36c2.31.34,3.9.66,3.56,3C553.7,265.06,552.26,268.33,550.41,268.61Z" transform="translate(-239.6 -101.86)"/></g></g><g id="PC"><rect class="cls-9" x="162.7" y="151.16" width="9.38" height="19.06"/><rect class="cls-11" x="162.7" y="151.16" width="9.38" height="19.06"/><polygon class="cls-9" points="176.31 170.56 158.54 170.56 162.88 166.75 171.98 166.75 176.31 170.56"/><polygon class="cls-11" points="176.31 170.56 158.54 170.56 162.88 166.75 171.98 166.75 176.31 170.56"/><polygon class="cls-9" points="215.39 164.39 170.96 164.39 178.99 170.58 223.41 170.58 215.39 164.39"/><polygon class="cls-13" points="215.39 164.39 170.96 164.39 178.99 170.58 223.41 170.58 215.39 164.39"/><polygon class="cls-9" points="171.99 170.58 170.96 164.39 178.99 170.58 171.99 170.58"/><polygon class="cls-10" points="171.99 170.58 170.96 164.39 178.99 170.58 171.99 170.58"/><rect class="cls-9" x="125.2" y="106.06" width="83.93" height="52.65" rx="1.53"/><rect class="cls-10" x="128.25" y="109.35" width="77.75" height="45.89"/><rect class="cls-14" x="164.29" y="118.79" width="39.23" height="27.01"/><rect class="cls-9" x="164.29" y="118.79" width="39.23" height="2.47"/><path class="cls-7" d="M411.08,235.59l6.42,3.55a2,2,0,0,1,.64.49.85.85,0,0,1,.16.54,1,1,0,0,1-.3.72,1,1,0,0,1-.7.3,1.93,1.93,0,0,1-.78-.29l-8.27-4.6a.81.81,0,0,1,0-1.42l8.27-4.6a1.89,1.89,0,0,1,.77-.28,1,1,0,0,1,1,1,.85.85,0,0,1-.16.54,2.21,2.21,0,0,1-.64.48Z" transform="translate(-239.6 -101.86)"/><path class="cls-7" d="M427.59,229l-6.35,13.68a2.26,2.26,0,0,1-.43.67,1,1,0,0,1-1.31-.09.88.88,0,0,1-.3-.66,2.11,2.11,0,0,1,.23-.76l6.37-13.67a2.07,2.07,0,0,1,.42-.66,1,1,0,0,1,1.31.08.89.89,0,0,1,.29.65A2.11,2.11,0,0,1,427.59,229Z" transform="translate(-239.6 -101.86)"/><path class="cls-7" d="M435.57,235.59,429.15,232a2.21,2.21,0,0,1-.64-.48.85.85,0,0,1-.16-.54,1,1,0,0,1,.3-.71,1,1,0,0,1,.71-.3,1.89,1.89,0,0,1,.77.28l8.27,4.6a.81.81,0,0,1,0,1.42l-8.27,4.6a2,2,0,0,1-.77.29,1,1,0,0,1-.72-.31,1,1,0,0,1-.29-.71.85.85,0,0,1,.16-.54,2,2,0,0,1,.64-.49Z" transform="translate(-239.6 -101.86)"/><rect class="cls-7" x="131.43" y="113.59" width="2.66" height="2.66"/><rect class="cls-7" x="131.43" y="120.47" width="2.66" height="2.66"/><rect class="cls-7" x="131.43" y="127.34" width="2.66" height="2.66"/><rect class="cls-7" x="131.43" y="134.22" width="2.66" height="2.66"/><rect class="cls-7" x="131.43" y="141.09" width="2.66" height="2.66"/><rect class="cls-7" x="131.43" y="147.97" width="2.66" height="2.66"/><rect class="cls-7" x="136.61" y="114.19" width="10.59" height="0.8"/><rect class="cls-7" x="139.08" y="121.08" width="3.77" height="0.8"/><rect class="cls-7" x="155.49" y="128.81" width="3.77" height="0.8"/><rect class="cls-7" x="139.08" y="134.95" width="3.77" height="0.8"/><rect class="cls-7" x="144.52" y="134.95" width="3.77" height="0.8"/><rect class="cls-7" x="144.52" y="128.81" width="9.64" height="0.8"/><rect class="cls-7" x="150.13" y="134.95" width="6.34" height="0.8"/><rect class="cls-7" x="150.11" y="149.69" width="3.77" height="0.8"/><rect class="cls-7" x="155.55" y="149.69" width="3.77" height="0.8"/><rect class="cls-7" x="161.16" y="149.69" width="2.11" height="0.8"/><rect class="cls-7" x="144.74" y="121.08" width="11.74" height="0.8"/><rect class="cls-7" x="144.52" y="142.13" width="3.77" height="0.8"/><rect class="cls-7" x="149.55" y="142.13" width="2.18" height="0.8"/><rect class="cls-7" x="153.4" y="142.13" width="6.16" height="0.8"/></g><g id="Speech_Code" data-name="Speech Code"><path class="cls-9" d="M400.18,186c-.19,9.63-10.2,17.7-22.35,18A25.67,25.67,0,0,1,367,202c-1.22,3-3.8,5.62-11.19,6.78,7.71-5.95,3.49-11,1.73-15.43h0a13.9,13.9,0,0,1-1.32-6.19c.19-9.63,10.2-17.7,22.34-18S400.37,176.38,400.18,186Z" transform="translate(-239.6 -101.86)"/><rect class="cls-7" x="128.24" y="74.07" width="10.59" height="0.8"/><rect class="cls-7" x="130.71" y="80.97" width="3.77" height="0.8"/><rect class="cls-7" x="147.12" y="88.7" width="3.77" height="0.8"/><rect class="cls-7" x="130.71" y="94.84" width="3.77" height="0.8"/><rect class="cls-7" x="136.14" y="94.84" width="3.77" height="0.8"/><rect class="cls-7" x="136.14" y="88.7" width="9.64" height="0.8"/><rect class="cls-7" x="141.76" y="94.84" width="6.34" height="0.8"/><rect class="cls-7" x="136.37" y="80.97" width="11.74" height="0.8"/></g><g id="Character_2" data-name="Character 2"><polygon class="cls-15" points="206.51 266.54 200.71 264.81 202.06 250.59 207.86 252.32 206.51 266.54"/><polygon class="cls-16" points="208.34 249.11 202.54 247.38 201.78 255.35 207.65 256.44 208.34 249.11"/><path class="cls-9" d="M480.44,280.59s-39.88,3.36-38.9,20.68c.8,14.18,2.9,10.33-1.23,52.49l10,.55s10.21-34.48,8.83-48.18c11.25,0,37,1,40.72-9.16a45.13,45.13,0,0,0,2.67-16.07Z" transform="translate(-239.6 -101.86)"/><polygon class="cls-17" points="212.34 254.39 199.22 252.15 199.44 246.35 213.01 249.36 212.34 254.39"/><path class="cls-17" d="M439.71,364.28l6.7,1.32a.52.52,0,0,1,.39.57l-.56,6.33a1.12,1.12,0,0,1-1.23,1c-2.32-.5-3.42-.88-6.36-1.46-1.82-.36-6-1.23-8.48-1.51s-2.22-3.24-1.13-3.39c4.9-.65,7.68-1.44,9.58-2.67A1.48,1.48,0,0,1,439.71,364.28Z" transform="translate(-239.6 -101.86)"/><path class="cls-9" d="M436.71,365.43a7.69,7.69,0,0,0,1.59,0,.13.13,0,0,0,.12-.08.14.14,0,0,0,0-.15c-.17-.17-1.67-1.6-2.44-1.44a.52.52,0,0,0-.39.34.77.77,0,0,0,.05.79A1.65,1.65,0,0,0,436.71,365.43Zm1.28-.22c-1.11,0-1.89-.13-2.12-.45a.52.52,0,0,1,0-.51.29.29,0,0,1,.19-.18C436.46,364,437.37,364.66,438,365.21Z" transform="translate(-239.6 -101.86)"/><path class="cls-9" d="M438.31,365.47h.06a.14.14,0,0,0,.1-.1c0-.07.44-1.77-.07-2.44a.68.68,0,0,0-.56-.3.54.54,0,0,0-.57.34,3.08,3.08,0,0,0,1,2.47A.09.09,0,0,0,438.31,365.47Zm-.42-2.55a.39.39,0,0,1,.28.18,3,3,0,0,1,.07,1.95,2.86,2.86,0,0,1-.71-2c0-.08.09-.17.29-.16Z" transform="translate(-239.6 -101.86)"/><polygon class="cls-15" points="180.65 268.75 175.13 266.27 178.95 252.65 184.47 255.13 180.65 268.75"/><polygon class="cls-16" points="185.4 251.63 179.88 249.14 177.91 256.17 183.44 258.65 185.4 251.63"/><path class="cls-9" d="M468.57,280.59c-.26,0-44.71,4.57-44.77,19.65-.09,24.93-7.21,53.52-7.21,53.52l8.78,4.35s15.3-31,15.07-50.42c12.23-3.51,43.86,2.38,47.6-7.75,3.06-8.29,1.41-19.35,1.41-19.35Z" transform="translate(-239.6 -101.86)"/><polygon class="cls-17" points="187.17 257.51 175.4 252.21 176.34 247.39 188.76 251.68 187.17 257.51"/><path class="cls-17" d="M415.28,363.55,422,365a.55.55,0,0,1,.37.62l-.52,7c-.09.75-.64,1.27-1.22,1.16h0c-2.32-.54-3.42-.95-6.37-1.56-1.81-.38-6.75-1.57-9.24-2.23s-1.93-3.82-.8-3.84c4.93-.07,8.12-.88,10-2.25A1.35,1.35,0,0,1,415.28,363.55Z" transform="translate(-239.6 -101.86)"/><path class="cls-9" d="M412.52,365.05a6.92,6.92,0,0,0,1.31-.9.13.13,0,0,0,.05-.15.13.13,0,0,0-.12-.09c-.23,0-2.28-.31-2.81.29a.53.53,0,0,0-.11.5.78.78,0,0,0,.5.61A1.58,1.58,0,0,0,412.52,365.05Zm.9-.92c-.86.67-1.59,1-2,.89a.53.53,0,0,1-.3-.42.23.23,0,0,1,.05-.24A3.89,3.89,0,0,1,413.42,364.13Z" transform="translate(-239.6 -101.86)"/><path class="cls-9" d="M413.83,364.15l.06,0a.13.13,0,0,0,0-.13c0-.06-.7-1.69-1.51-1.93a.68.68,0,0,0-.62.09.54.54,0,0,0-.26.61c.17.66,1.54,1.37,2.25,1.42ZM412,362.34a.43.43,0,0,1,.33,0,3.11,3.11,0,0,1,1.23,1.54,2.88,2.88,0,0,1-1.76-1.17c0-.06,0-.19.15-.3Z" transform="translate(-239.6 -101.86)"/><path class="cls-15" d="M483.67,232.48c1.17,2.52,2.13,4.94,3.1,7.45s1.81,5,2.6,7.61,1.47,5.22,2,8a41.3,41.3,0,0,1,.89,8.65,17.59,17.59,0,0,1-.76,5A11.4,11.4,0,0,1,490.2,272a9.5,9.5,0,0,1-1.14,1.38l-.34.34c-.2.16-.4.33-.6.47a6.19,6.19,0,0,1-1.07.59,9.32,9.32,0,0,1-1.72.55,13.1,13.1,0,0,1-1.4.2,19.7,19.7,0,0,1-2.43,0,35.91,35.91,0,0,1-4.28-.47,81.09,81.09,0,0,1-15.44-4.43l1.15-4.38c5.05.6,10.21,1.25,15.07,1.47,1.21,0,2.39.06,3.48,0a11.88,11.88,0,0,0,1.46-.18c.4-.07.74-.22.62-.21a.91.91,0,0,0-.22.11l-.23.17h0l.08-.14a3.38,3.38,0,0,0,.23-.7,11.34,11.34,0,0,0,.22-2.66,36,36,0,0,0-1-6.76c-.54-2.38-1.24-4.71-2-7.07s-1.59-4.73-2.49-7.08-1.87-4.72-2.8-6.94Z" transform="translate(-239.6 -101.86)"/><path class="cls-15" d="M465.13,267.45l-5.28-3-2.65,5.72s6.17,2.57,7.46,1Z" transform="translate(-239.6 -101.86)"/><polygon class="cls-15" points="215.97 163.71 213.56 167.53 217.6 168.3 220.25 162.58 215.97 163.71"/><path class="cls-15" d="M471.37,237c-1,2.54-2.07,5-3.18,7.42s-2.23,4.88-3.41,7.3a138.77,138.77,0,0,1-7.95,14.32c-.8,1.18-1.59,2.35-2.48,3.52-.45.59-.94,1.17-1.47,1.76-.28.31-.52.58-.85.89l-.48.47-.27.25a6.8,6.8,0,0,1-2.61,1.39,11.37,11.37,0,0,1-1.54.32,15.67,15.67,0,0,1-2.56.1,32.6,32.6,0,0,1-4.41-.43,81.5,81.5,0,0,1-15.77-4.47l1.16-4.4c5.15.63,10.41,1.29,15.36,1.49a31.44,31.44,0,0,0,3.5-.05,8.21,8.21,0,0,0,1.39-.22,1.72,1.72,0,0,0,.43-.16s0,0-.21.08l-.22.16.08-.09.22-.25c.15-.14.32-.38.49-.57.32-.42.66-.86,1-1.35.66-.94,1.31-2,1.94-3.06,1.28-2.13,2.46-4.4,3.62-6.69s2.28-4.63,3.38-7c2.19-4.69,4.33-9.5,6.36-14.24Z" transform="translate(-239.6 -101.86)"/><path class="cls-15" d="M427.81,266.61l-5.28-3-2.65,5.72s6.17,2.57,7.47,1Z" transform="translate(-239.6 -101.86)"/><polygon class="cls-15" points="178.66 162.87 176.24 166.68 180.28 167.46 182.93 161.74 178.66 162.87"/><path class="cls-15" d="M485,208.79l-3.37,3.91L476.51,218c.11.26.25.6.39,1a9.32,9.32,0,0,1,.69,3.08c.11,2.14-.09,3.94-3.46,5.39,0,0-3.53,4.61,4.87,3.33s9.67-5.64,9.67-5.64C484.94,222.5,484.74,213.7,485,208.79Z" transform="translate(-239.6 -101.86)"/><path class="cls-17" d="M467.9,204.39c0,.52-.26,1-.61,1s-.63-.39-.64-.92.27-1,.62-1S467.89,203.86,467.9,204.39Z" transform="translate(-239.6 -101.86)"/><path class="cls-17" d="M469.66,202.43a.31.31,0,0,1-.25-.14,2.59,2.59,0,0,0-1.93-1.23.32.32,0,0,1-.3-.32.31.31,0,0,1,.32-.3h0a3.18,3.18,0,0,1,2.43,1.51.32.32,0,0,1-.09.43A.41.41,0,0,1,469.66,202.43Z" transform="translate(-239.6 -101.86)"/><path class="cls-18" d="M467.71,204.68a16.54,16.54,0,0,1-1.83,4.07,2.51,2.51,0,0,0,2.17.16Z" transform="translate(-239.6 -101.86)"/><path class="cls-15" d="M485.51,201.74c-.31,6.49-.17,10.34-3.39,13.78a8.46,8.46,0,0,1-11.95.58,8.56,8.56,0,0,1-2.55-4.33c-1.46-5.75-.7-15.4,5.57-18.3a8.55,8.55,0,0,1,12.32,8.27Z" transform="translate(-239.6 -101.86)"/><path class="cls-17" d="M488.46,203.9a24,24,0,0,1-4.22,7.56l-8.45,1.59s-6.68-2.79-4.89-7.39c-1.13-.95-.71-3.91.08-5.53a3.45,3.45,0,0,0,4.52-.12,3.08,3.08,0,0,0,4.89.41,3.26,3.26,0,0,0,5.14-.83,2.92,2.92,0,0,0,3.4-.22l.12-.11A11.59,11.59,0,0,1,488.46,203.9Z" transform="translate(-239.6 -101.86)"/><path class="cls-19" d="M488.46,203.9a24,24,0,0,1-4.22,7.56l-8.45,1.59s-6.68-2.79-4.89-7.39c-1.13-.95-.71-3.91.08-5.53a3.45,3.45,0,0,0,4.52-.12,3.08,3.08,0,0,0,4.89.41,3.26,3.26,0,0,0,5.14-.83,2.92,2.92,0,0,0,3.4-.22l.12-.11A11.59,11.59,0,0,1,488.46,203.9Z" transform="translate(-239.6 -101.86)"/><path class="cls-17" d="M489.67,196a2.94,2.94,0,0,1-.62,3.23l-.12.11a2.92,2.92,0,0,1-3.4.22,3.26,3.26,0,0,1-5.14.83,3.08,3.08,0,0,1-4.89-.41,3.45,3.45,0,0,1-4.52.12,2.73,2.73,0,0,1-.79-1,1.19,1.19,0,0,1-.11-.26,2.39,2.39,0,0,1-.23.22,2.34,2.34,0,0,1-3.85-2,2.28,2.28,0,0,1,.09-.51,1.12,1.12,0,0,1-.24.33,2,2,0,0,1-2.83-.07,2.46,2.46,0,0,1,.79-3.47,2.92,2.92,0,0,1,1.49-.4,3.87,3.87,0,0,1,2.29.79,2.35,2.35,0,0,1,3.77-2.81,2.06,2.06,0,0,1,.85-2.15,3.36,3.36,0,0,1,3.82,1s1.22-3,3.34-2.62c.46.06,2.63,1,2.58,1.8a.42.42,0,0,1,0,.16,1,1,0,0,1,.1-.18,2.35,2.35,0,0,1,2-1,6.86,6.86,0,0,1,2.45.65c1.65.68,3.4,1.43,4.35,2.94S491.38,195.56,489.67,196Z" transform="translate(-239.6 -101.86)"/><path class="cls-15" d="M474.63,206.26a7.67,7.67,0,0,1-2.1,4.25c-1.44,1.38-2.67,0-2.69-2.09,0-1.89.71-4.89,2.39-5.45S474.94,204.2,474.63,206.26Z" transform="translate(-239.6 -101.86)"/><path class="cls-17" d="M500.07,227.41c-.6-1.59-3.38-3.18-5.09-3.18h-1.13a61.44,61.44,0,0,0-6.82.44,121.63,121.63,0,0,0-13.53,2.27c-2.05.54-4,1.23-5.61,1.82-2,.79-3.18,1.32-3.18,1.32s2.2,14.63,3.34,29.16c.63,8.08.37,16.11.57,21.64h33.94c1.17-6.64,1-12.43,1.08-24.41C503.7,249.28,502.53,234,500.07,227.41Z" transform="translate(-239.6 -101.86)"/><path class="cls-16" d="M467.31,251.12c.26,3,.52,6.24.8,9.44,4-5.8,6.18-21.69,6.18-21.69Z" transform="translate(-239.6 -101.86)"/><path class="cls-17" d="M462.79,231.15c-4.86,2.74-9.62,16.75-9.62,16.75l11.13,8.39c4.25-4,10.46-14,11.14-18C476.53,232.2,470.58,226.79,462.79,231.15Z" transform="translate(-239.6 -101.86)"/><path class="cls-17" d="M453.19,373.72a3.46,3.46,0,1,1-3.46-3.46,3.46,3.46,0,0,1,3.46,3.46Z" transform="translate(-239.6 -101.86)"/><path class="cls-17" d="M504.82,373.72a3.46,3.46,0,1,0,3.46-3.46,3.45,3.45,0,0,0-3.46,3.46Z" transform="translate(-239.6 -101.86)"/><path class="cls-17" d="M475.63,372.61a3.47,3.47,0,1,0,3.46-3.46,3.46,3.46,0,0,0-3.46,3.46Z" transform="translate(-239.6 -101.86)"/><path class="cls-17" d="M478,368.34v-6.69h-9.91a31.3,31.3,0,0,0-5.8.54l-18.46,3.59a1.68,1.68,0,0,0,.37,3.32Z" transform="translate(-239.6 -101.86)"/><path class="cls-17" d="M478,368.34v-6.69h9.92a31.3,31.3,0,0,1,5.8.54l20.75,3.32a1.68,1.68,0,0,1-.38,3.32Z" transform="translate(-239.6 -101.86)"/><rect class="cls-17" x="232.27" y="229.16" width="12.28" height="30.64"/><rect class="cls-17" x="234.04" y="214.9" width="8.75" height="14.25"/><polygon class="cls-20" points="234.04 219.09 242.79 221.29 242.79 214.9 234.04 214.9 234.04 219.09"/><rect class="cls-17" x="205.68" y="182.66" width="4.45" height="18.97"/><path class="cls-9" d="M472,316.76V234.27a10.83,10.83,0,0,1,3.69-8.15L481.6,221a10.84,10.84,0,0,1,7.14-2.68H510l10.38,11v87.43Z" transform="translate(-239.6 -101.86)"/><path class="cls-9" d="M440.4,300.8h48.46v16H432.51a5.73,5.73,0,0,1-4.93-8.65h0A14.9,14.9,0,0,1,440.4,300.8Z" transform="translate(-239.6 -101.86)"/><path class="cls-21" d="M520.36,229.34v87.43H432.51a5.74,5.74,0,0,1-5.73-5.73,5.65,5.65,0,0,1,.8-2.92,14.87,14.87,0,0,1,12.8-7.31h24.4a7.26,7.26,0,0,0,7.25-7.25V234.27a10.81,10.81,0,0,1,3.7-8.15l5.88-5.14a10.77,10.77,0,0,1,7.13-2.69H510Z" transform="translate(-239.6 -101.86)"/><path class="cls-9" d="M479.09,316.76V234.27a10.84,10.84,0,0,1,3.7-8.15l5.88-5.15a10.84,10.84,0,0,1,7.14-2.68h16.55a10.85,10.85,0,0,1,7.9,3.42l4.23,4.5a10.87,10.87,0,0,1,2.94,7.42V308.5a8.26,8.26,0,0,1-8.26,8.26Z" transform="translate(-239.6 -101.86)"/><path class="cls-11" d="M479.09,316.76V234.27a10.84,10.84,0,0,1,3.7-8.15l5.88-5.15a10.84,10.84,0,0,1,7.14-2.68h16.55a10.85,10.85,0,0,1,7.9,3.42l4.23,4.5a10.87,10.87,0,0,1,2.94,7.42V308.5a8.26,8.26,0,0,1-8.26,8.26Z" transform="translate(-239.6 -101.86)"/><path class="cls-9" d="M462.61,290.32a45.82,45.82,0,0,0-30.23,0,4.32,4.32,0,0,1-5.33-2h0c-.9-1.92.31-4.4,2.78-5.27a53.58,53.58,0,0,1,35.31,0c2.47.86,3.68,3.35,2.78,5.27h0A4.32,4.32,0,0,1,462.61,290.32Z" transform="translate(-239.6 -101.86)"/><path class="cls-21" d="M462.61,290.32a45.82,45.82,0,0,0-30.23,0,4.32,4.32,0,0,1-5.33-2h0c-.9-1.92.31-4.4,2.78-5.27a53.58,53.58,0,0,1,35.31,0c2.47.86,3.68,3.35,2.78,5.27h0A4.32,4.32,0,0,1,462.61,290.32Z" transform="translate(-239.6 -101.86)"/></g><g id="Character_1" data-name="Character 1"><g id="_Group_" data-name="&lt;Group&gt;"><path class="cls-17" d="M339,211.38c-.16.47,0,.94.27,1.05s.69-.19.85-.66.05-.94-.26-1.05S339.13,210.91,339,211.38Z" transform="translate(-239.6 -101.86)"/><path class="cls-22" d="M338.88,211.87a17.94,17.94,0,0,0,.85,4.82,2.92,2.92,0,0,1-2.39-.36Z" transform="translate(-239.6 -101.86)"/><path class="cls-17" d="M338.2,208.19a.28.28,0,0,0,.18,0,2.34,2.34,0,0,1,2.1.31.29.29,0,0,0,.41-.06.3.3,0,0,0,0-.38,2.9,2.9,0,0,0-2.64-.44.3.3,0,0,0-.19.38.31.31,0,0,0,.19.18Z" transform="translate(-239.6 -101.86)"/><path class="cls-23" d="M321.52,213.12c.89,4.53,1.77,12.82-1.4,15.85,0,0,1.25,4.59,9.66,4.59,9.26,0,4.43-4.59,4.43-4.59-5.06-1.21-4.24-5-3.36-8.48Z" transform="translate(-239.6 -101.86)"/><path class="cls-23" d="M323.58,204.91c-1.66,5.92-2.93,9.3-1,13.29,2.84,6,12.77,6.78,15.48-.1,2.06-6.33,4.09-13-.77-17.29a8.38,8.38,0,0,0-13.67,4.1Z" transform="translate(-239.6 -101.86)"/><path class="cls-17" d="M317.16,206.88c-.43-2.18-.54-4.57.55-6.51s3.73-3.12,5.64-2a9.31,9.31,0,1,1,13.2,12l1.32-4.88a9.48,9.48,0,0,1-3.39,5.76c.26-1.62.52-3.25.77-4.88a7.47,7.47,0,0,1-3.61,5.61l.93-3.41a30.48,30.48,0,0,1-1.8,4.57c-.78.91-1.3,6.89-4,7.08C317.35,222.08,318.17,212,317.16,206.88Z" transform="translate(-239.6 -101.86)"/><path class="cls-23" d="M329.82,209.71a7,7,0,0,0,1,4.35c1.06,1.71,2.61,1.05,3.18-.69.51-1.59.57-4.33-.9-5.44S330,207.88,329.82,209.71Z" transform="translate(-239.6 -101.86)"/><path class="cls-23" d="M307.4,267.06c-1-.34-5.75-2.77-6.5-2.34,2.18-5.57,3.54-6.43,4.54-10a5.47,5.47,0,0,0-1.06-5.17c-1.4-1.88-1.89-2.83-4.21-2.6-3.2,5.35-7.23,12-8.81,18-.53,2-.91,3.57.3,5.29,1.06,1.51,3,2.12,4.87,2.28,4.44.4,11-.41,10.93-3C307.41,267.81,307.4,267.06,307.4,267.06Z" transform="translate(-239.6 -101.86)"/><path class="cls-23" d="M306.64,266.86l3.76-1.22-.33,6.79s-3,.1-4.61-1.91Z" transform="translate(-239.6 -101.86)"/><polygon class="cls-23" points="75.49 163.67 74.95 169.27 70.46 170.57 70.8 163.78 75.49 163.67"/><path class="cls-23" d="M358.16,271.68S352.92,267.57,346,254c-1-1.89-2-3.81-2.93-5.74s-1.83-3.85-2.69-5.89l8.13-3.5c1.67,3.64,4.28,7.4,6.12,11s6.21,12.19,6.75,13c.27.41.57.75.85,1.13l.42.56-5.25,6.06Z" transform="translate(-239.6 -101.86)"/><path class="cls-23" d="M365,245.3l-1.62-1.94-.76-2.91,4.91-4.56a21.07,21.07,0,0,1,2,3,1.51,1.51,0,0,1,.17.78l-.2,5.11Z" transform="translate(-239.6 -101.86)"/><polygon class="cls-23" points="123.12 135.45 126.79 132.11 127.95 134.06 123.05 138.59 123.12 135.45"/><path class="cls-23" d="M365.11,243.88c.12-.55.24.52.6.09,1.08-1.3,2.66-1.44,3.6,0s.13,15.61-1.37,20.06c-1,2.95-1.52,5.31-4.07,7.11a6.2,6.2,0,0,1-3.58,1.28,3.37,3.37,0,0,1-3.1-1.92c-.76-1.85,2.05-8.53,3.05-10.69C363.39,253,363.6,250.29,365.11,243.88Z" transform="translate(-239.6 -101.86)"/><path class="cls-9" d="M354.58,243.27l6.5-.06a6.24,6.24,0,0,0,2.72-.44A4.92,4.92,0,0,0,366,240c.92-2.36,1-4.95,1.37-7.45s1.11-5.12,3-6.8c-3.45.46-9.56-.62-12.21,2.21C356.78,229.46,354.31,243.27,354.58,243.27Z" transform="translate(-239.6 -101.86)"/><path class="cls-11" d="M354.58,243.27l6.5-.06a6.24,6.24,0,0,0,2.72-.44A4.92,4.92,0,0,0,366,240c.92-2.36,1-4.95,1.37-7.45s1.11-5.12,3-6.8c-3.45.46-9.56-.62-12.21,2.21C356.78,229.46,354.31,243.27,354.58,243.27Z" transform="translate(-239.6 -101.86)"/><path class="cls-23" d="M365.7,233.61h0c-.37.1-.62,1.44-.54,1.81l.37.65.74,3.23,2.48-1.37-2.24-4A.72.72,0,0,0,365.7,233.61Z" transform="translate(-239.6 -101.86)"/><path class="cls-9" d="M309.63,230.1c-5.8,1.33-14.39,19.43-14.39,19.43l11.65,8a129.86,129.86,0,0,0,9.07-15C319.41,235.28,315.57,228.74,309.63,230.1Z" transform="translate(-239.6 -101.86)"/><path class="cls-17" d="M318.12,230.54c-.67-1.45-1.39-3.12.11-3.63,1.66-.58,10.77-1.16,13.9-.09a3.23,3.23,0,0,1,2.27,4l0,.07Z" transform="translate(-239.6 -101.86)"/><path class="cls-16" d="M313.23,240.55l-8.29,15.6,1.95,1.33s3.76-5.22,6.34-9.74Z" transform="translate(-239.6 -101.86)"/><path class="cls-9" d="M345,238.07c1.25,6.35-1.68,21.45-1.65,46.12H310.18c-.22-5,3.41-16.79-1.1-40.31-.14-.76-.21-13.64.55-13.78a87.85,87.85,0,0,1,9.7-1.14,118.11,118.11,0,0,1,14.08,0,35.44,35.44,0,0,1,6.84,2.07C343.22,232.1,344.33,235,345,238.07Z" transform="translate(-239.6 -101.86)"/><path class="cls-16" d="M336.18,244.39a38.68,38.68,0,0,0,7.71,16.19c.14-3,.43-6.07.42-8.45Z" transform="translate(-239.6 -101.86)"/><path class="cls-9" d="M333.83,236.53c-.8,5.87,10.74,20.84,10.74,20.84l11.6-8s-3.22-8.25-8.64-13.66C341.36,229.55,334.73,230.15,333.83,236.53Z" transform="translate(-239.6 -101.86)"/><polygon class="cls-23" points="132.16 264.45 138.35 264.45 139.76 250.11 133.57 250.11 132.16 264.45"/><polygon class="cls-16" points="139.66 250.98 138.95 258.37 132.75 258.37 133.47 250.98 139.66 250.98"/><polygon class="cls-23" points="107.75 264.45 113.94 264.45 117.05 250.11 110.86 250.11 107.75 264.45"/><g class="cls-24"><polygon points="110.72 250.87 116.91 250.87 115.31 258.26 109.11 258.26 110.72 250.87"/></g><path class="cls-17" d="M378.31,363.53h-6.76a.6.6,0,0,0-.53.56l-1.23,7.08a1.22,1.22,0,0,0,.67,1.4.83.83,0,0,0,.22,0c2.44-.05,6-.23,9-.23,3.58,0,6.68.24,10.88.24,2.55,0,3.25-3.32,2.19-3.62-4.85-1.37-8.8-1.52-13-4.86A2.38,2.38,0,0,0,378.31,363.53Z" transform="translate(-239.6 -101.86)"/><path class="cls-9" d="M383.22,365.83c.8,0,1.59-.11,1.83-.47a.57.57,0,0,0,0-.64.81.81,0,0,0-.47-.34c-1-.28-3.18.95-3.28,1a.12.12,0,0,0-.07.15.15.15,0,0,0,.11.12A10.77,10.77,0,0,0,383.22,365.83Zm1-1.2h.28a.43.43,0,0,1,.28.21c.11.18.08.27,0,.32-.28.4-1.85.41-3,.24A6.7,6.7,0,0,1,384.21,364.63Z" transform="translate(-239.6 -101.86)"/><path class="cls-9" d="M381.35,365.66h.07c.75-.34,2.23-1.67,2.11-2.39,0-.17-.15-.36-.55-.41a1,1,0,0,0-.79.25,4.06,4.06,0,0,0-1,2.39.13.13,0,0,0,0,.13A.11.11,0,0,0,381.35,365.66Zm1.52-2.51H383c.27,0,.28.14.29.17.07.42-.94,1.47-1.7,1.92a3.43,3.43,0,0,1,.79-1.9A.87.87,0,0,1,382.87,363.15Z" transform="translate(-239.6 -101.86)"/><path class="cls-17" d="M354,363.53h-7a.59.59,0,0,0-.52.56l-1.23,7.08a1.23,1.23,0,0,0,.71,1.41l.2,0c2.43-.05,3.61-.23,6.67-.23,1.88,0,4.29.24,6.9.24s2.93-3.32,1.86-3.62c-4.77-1.35-5.09-3.22-6.62-5A1.31,1.31,0,0,0,354,363.53Z" transform="translate(-239.6 -101.86)"/><path class="cls-9" d="M357.61,366.62a2,2,0,0,0,1.49-.4.6.6,0,0,0,0-.7.67.67,0,0,0-.46-.34c-.91-.21-2.62,1-2.69,1a.16.16,0,0,0-.06.15.15.15,0,0,0,.11.12A7.93,7.93,0,0,0,357.61,366.62Zm.8-1.18h.17a.36.36,0,0,1,.27.19c.14.25.06.35,0,.39-.26.34-1.52.35-2.45.2a4.77,4.77,0,0,1,2-.78Z" transform="translate(-239.6 -101.86)"/><path class="cls-9" d="M356,366.45h.06c.65-.35,1.89-1.7,1.75-2.38a.47.47,0,0,0-.47-.39.79.79,0,0,0-.62.19c-.71.59-.87,2.39-.87,2.45a.15.15,0,0,0,.07.13Zm1.25-2.5h.06c.19,0,.21.11.22.15.08.41-.72,1.43-1.36,1.92a3.55,3.55,0,0,1,.73-1.94.51.51,0,0,1,.35-.13Z" transform="translate(-239.6 -101.86)"/><path class="cls-17" d="M333.37,284.2s29.32,12.1,35.38,21.41c-3.6,23.66-10.07,50.61-10.07,50.61h-11a217.62,217.62,0,0,1,2.86-34.81c1.59-28.92-50.46,1-40.35-37.21Z" transform="translate(-239.6 -101.86)"/><path class="cls-25" d="M353.64,304.14a54.87,54.87,0,0,0-6.12.71l-6.43,1a97.72,97.72,0,0,0,10.47,7.65c2.22,1.4,4.63,2.76,7.26,2.77,2.94,0,10.92-3.78,9.6-7.69S357,304,353.64,304.14Z" transform="translate(-239.6 -101.86)"/><path class="cls-17" d="M343.3,284.2s27.1,3.49,42,12c4.6,2.62,4,11,3.83,16.57a130.71,130.71,0,0,1-8.44,43.45h-9.2s.47-15,.16-39.24c-.1-7.26-14.76-9.65-29.09-10.5a32.64,32.64,0,0,1-28-19.94l-1-2.34Z" transform="translate(-239.6 -101.86)"/><path class="cls-9" d="M383,353.76s-.6,4.35-.6,4.35H369.65l-.35-3.88Z" transform="translate(-239.6 -101.86)"/><path class="cls-9" d="M359.75,353.76s-1.17,4.35-1.17,4.35H345.85l.23-3.88Z" transform="translate(-239.6 -101.86)"/><polygon class="cls-9" points="85.93 204.29 76.81 271.52 75.16 271.3 82.2 203.78 85.93 204.29"/><polygon class="cls-26" points="85.61 206.7 76.81 271.52 75.16 271.3 81.9 206.69 85.61 206.7"/><path class="cls-9" d="M357.62,308.56H305.91a5.9,5.9,0,0,1,5.9-5.9h39.91a5.9,5.9,0,0,1,5.9,5.9Z" transform="translate(-239.6 -101.86)"/><path class="cls-21" d="M357.62,308.56H305.91a5.9,5.9,0,0,1,5.9-5.9h39.91a5.9,5.9,0,0,1,5.9,5.9Z" transform="translate(-239.6 -101.86)"/><polygon class="cls-9" points="68.7 206.69 60.9 272.06 62.57 272.06 72.46 206.69 68.7 206.69"/><polygon class="cls-9" points="115.62 206.69 123.42 272.06 121.75 272.06 111.87 206.69 115.62 206.69"/><polygon class="cls-26" points="115.62 206.69 123.42 272.06 121.75 272.06 111.87 206.69 115.62 206.69"/><polygon class="cls-9" points="105.19 206.69 105.34 272.06 103.68 272.06 101.43 206.69 105.19 206.69"/></g></g></svg>