<?xml version="1.0" encoding="utf-8"?>
<!-- Generator: Adobe Illustrator 23.0.3, SVG Export Plug-In . SVG Version: 6.00 Build 0)  -->
<svg version="1.1"
	 id="svg8" inkscape:version="0.92.5 (2060ec1f9f, 2020-04-08)" sodipodi:docname="discord logo.svg" xmlns:cc="http://creativecommons.org/ns#" xmlns:dc="http://purl.org/dc/elements/1.1/" xmlns:inkscape="http://www.inkscape.org/namespaces/inkscape" xmlns:rdf="http://www.w3.org/1999/02/22-rdf-syntax-ns#" xmlns:sodipodi="http://sodipodi.sourceforge.net/DTD/sodipodi-0.dtd" xmlns:svg="http://www.w3.org/2000/svg"
	 xmlns="http://www.w3.org/2000/svg" xmlns:xlink="http://www.w3.org/1999/xlink" x="0px" y="0px" viewBox="0 0 400 300"
	 style="enable-background:new 0 0 400 300;" xml:space="preserve">
<style type="text/css">
	.st0{fill:#5865F2;}
</style>
<path class="st0" d="M71.9,113.9c-0.8,1.5-1.8,3.5-2.5,5.1c-7.2-1.1-14.4-1.1-21.5,0c-0.7-1.6-1.7-3.6-2.5-5.1
	c-6.8,1.2-13.4,3.2-19.5,6.1c-12.3,18.4-15.6,36.4-14,54.1c8.2,6,16.1,9.7,23.8,12.1c1.9-2.6,3.6-5.4,5.1-8.3
	c-2.8-1.1-5.5-2.4-8-3.9c0.7-0.5,1.3-1,2-1.5c15.5,7.2,32.4,7.2,47.7,0c0.6,0.5,1.3,1.1,2,1.5c-2.6,1.5-5.2,2.8-8.1,3.9
	c1.5,2.9,3.2,5.7,5.1,8.3c7.8-2.4,15.7-6.1,23.9-12.1c2-20.5-3.3-38.3-14-54.1C85.2,117.1,78.7,115,71.9,113.9z M43,163.1
	c-4.7,0-8.5-4.3-8.5-9.5c0-5.2,3.7-9.6,8.5-9.6c4.7,0,8.6,4.3,8.5,9.6C51.4,158.8,47.7,163.1,43,163.1z M74.3,163.1
	c-4.7,0-8.5-4.3-8.5-9.5c0-5.2,3.7-9.6,8.5-9.6c4.7,0,8.6,4.3,8.5,9.6C82.8,158.8,79,163.1,74.3,163.1z M170.8,134.6
	c-3.4-1.5-7.5-2.3-12.4-2.3h-20.2V169h18.8c5.3,0,9.7-0.8,13.3-2.5c3.6-1.6,6.2-3.9,8-6.7c1.7-2.8,2.6-6,2.6-9.4
	c0-3.5-0.8-6.7-2.5-9.4C176.7,138.3,174.1,136.1,170.8,134.6z M164.3,157.2c-1.8,1.7-4.3,2.5-7.6,2.5h-5.6v-18.1h6.3
	c3.2,0,5.6,0.8,7.1,2.4c1.6,1.6,2.4,3.7,2.4,6.4C166.9,153.3,166.1,155.6,164.3,157.2z M233.2,153.1c1.7,1.5,2.5,3.7,2.5,6.6
	c0,3.2-1.4,5.7-4.1,7.6c-2.8,1.9-6.6,2.8-11.7,2.8c-3,0-5.9-0.4-8.7-1.1h0c-2.8-0.7-5.3-1.8-7.6-3.2v-8.7c1.7,1.3,4,2.4,6.8,3.3
	c2.9,0.9,5.6,1.3,8.3,1.3c1.2,0,2.2-0.2,2.8-0.5c0.6-0.3,1-0.7,1-1.2c0-0.5-0.2-1-0.5-1.3c-0.3-0.4-1-0.6-2-0.9l-6.2-1.4
	c-3.6-0.8-6.1-2-7.6-3.5c-1.5-1.5-2.3-3.4-2.3-5.9c0-2,0.7-3.8,2-5.3c1.3-1.5,3.2-2.7,5.6-3.5c2.4-0.8,5.3-1.2,8.5-1.2
	c2.9,0,5.6,0.3,8,0.9c2.4,0.6,4.4,1.4,6,2.4v8.2c-1.6-1-3.5-1.8-5.6-2.3c-2.1-0.6-4.3-0.9-6.6-0.9c-3.3,0-4.9,0.6-4.9,1.7
	c0,0.5,0.3,0.9,0.8,1.2c0.5,0.3,1.4,0.5,2.8,0.8l5.2,0.9C229,150.6,231.5,151.6,233.2,153.1z M267.6,159.2c1.7-0.5,3.1-1.1,4.3-1.9
	v9.3c-3.8,2.3-8.2,3.5-13.2,3.5c-4.2,0-7.8-0.8-10.8-2.2c-3-1.5-5.2-3.5-6.7-6c-1.5-2.5-2.3-5.4-2.3-8.5c0-3.2,0.8-6,2.3-8.5
	c1.6-2.5,3.8-4.4,6.8-5.9c3-1.4,6.6-2.1,10.8-2.1c5.2,0,9.5,1.1,12.9,3.3v9.6c-1.2-0.8-2.6-1.5-4.2-2c-1.6-0.5-3.3-0.8-5.2-0.8
	c-3.2,0-5.7,0.6-7.5,1.8c-1.8,1.2-2.7,2.7-2.7,4.7c0,1.9,0.9,3.4,2.6,4.7c1.8,1.2,4.3,1.8,7.7,1.8
	C264.2,160,265.9,159.7,267.6,159.2z M306,139.1c-3-1.4-6.5-2.1-10.6-2.1c-4.1,0-7.7,0.7-10.6,2.1c-3,1.4-5.2,3.3-6.8,5.8
	c-1.6,2.5-2.4,5.3-2.4,8.4c0,3.2,0.8,6,2.4,8.6c1.6,2.6,3.9,4.6,6.8,6c3,1.5,6.5,2.2,10.6,2.2c4.1,0,7.6-0.7,10.6-2.2
	c3-1.5,5.3-3.5,6.8-6c1.6-2.6,2.3-5.4,2.3-8.6c0-3.2-0.8-6-2.3-8.5C311.3,142.4,309,140.5,306,139.1z M300.5,158.6
	c-1.3,1.3-3,1.9-5.2,1.9c-2.2,0-4-0.6-5.2-1.9c-1.3-1.3-1.9-3-1.9-5.1s0.6-3.8,1.9-5c1.3-1.2,3-1.9,5.2-1.9c2.2,0,3.9,0.6,5.2,1.9
	c1.3,1.2,1.9,2.9,1.9,5S301.8,157.3,300.5,158.6z M341.6,137.7c1.8,0,3.4,0.4,4.7,1.3v11.3c-1.3-0.9-3-1.3-5.1-1.3
	c-2.8,0-4.9,0.8-6.4,2.5c-1.5,1.7-2.2,4.3-2.2,7.9v9.7h-12.7v-30.7h12.5v9.8c0.7-3.6,1.8-6.2,3.4-7.9
	C337.2,138.5,339.2,137.7,341.6,137.7z M375.9,131.3V145c-2.1-5.3-6.1-8-12.2-8c-2.9,0-5.6,0.7-7.9,2.2c-2.3,1.4-4.1,3.4-5.3,6
	c-1.3,2.6-1.9,5.4-1.8,8.7c0,3.1,0.6,5.9,1.7,8.4c1.2,2.5,2.8,4.4,5,5.8c2.1,1.4,4.6,2.1,7.5,2.1c3.2,0,5.9-0.7,8.1-2
	c2.2-1.3,3.8-3.3,4.9-5.9v6.9h12.7v-37.8H375.9z M374,158.4c-1.3,1.3-3,1.9-5.2,1.9c-2.1,0-3.8-0.6-5.1-1.9
	c-1.3-1.3-1.9-2.9-1.9-4.9c0-2,0.6-3.6,1.9-4.9c1.3-1.2,3-1.9,5.1-1.9c2.2,0,3.9,0.6,5.2,1.8c1.3,1.2,1.9,2.8,1.9,4.8
	C375.9,155.4,375.3,157.1,374,158.4z M197.9,135.8c0,3.2-2.8,5.8-6.3,5.8c-3.5,0-6.3-2.6-6.3-5.8s2.8-5.8,6.3-5.8
	C195.1,130.1,197.9,132.7,197.9,135.8z M197.9,145.6v23.6h-12.7v-23.6C189.1,147.3,193.9,147.3,197.9,145.6z"/>
</svg>
