<?xml version="1.0" encoding="utf-8"?>
<!-- Generator: Adobe Illustrator 23.0.3, SVG Export Plug-In . SVG Version: 6.00 Build 0)  -->
<svg version="1.1" id="logosvg.com" xmlns="http://www.w3.org/2000/svg" xmlns:xlink="http://www.w3.org/1999/xlink" x="0px"
	 y="0px" viewBox="0 0 400 300" style="enable-background:new 0 0 400 300;" xml:space="preserve">
<style type="text/css">
	.st0{fill-rule:evenodd;clip-rule:evenodd;fill:#263238;}
	.st1{fill-rule:evenodd;clip-rule:evenodd;fill:#FF9D00;}
</style>
<path id="text" class="st0" d="M224.27,189.7127c1.0792,0.7244,1.2981,2.2142,0.4902,3.2354
	c-7.9736,10.0609-19.2449,16.5244-35.5359,16.5244c-26.6311,0-45.5764-18.9453-45.5764-45.9341
	c0-26.2734,19.1234-45.9339,44.5018-45.9339c25.5596,0,43.6097,19.8406,43.6097,45.9339c0,0.882-0.037,2.5948-0.0724,4.0059
	c-0.0309,1.2534-1.0561,2.2499-2.3094,2.2499h-65.1768c0.8942,12.6905,12.1551,22.1622,25.2009,22.1622
	c9.654,0,14.9621-3.5115,19.5162-9.3611c0.7477-0.9617,2.0952-1.198,3.1111-0.5238
	C215.0229,184.0648,221.0864,187.5773,224.27,189.7127z M211.2072,154.7811c-1.2518-11.6174-10.9028-20.1967-23.412-20.1967
	c-12.1562,0-22.1641,10.1868-23.4143,20.1967H211.2072z M283.2626,189.7456c-9.6772,0-14.1419-4.4652-14.1419-14.515v-36.7519
	h10.1011c1.2765,0,2.311-1.0345,2.311-2.3104v-13.6176c0-1.2759-1.0345-2.3094-2.311-2.3094h-10.1011V98.3604
	c0-1.2769-1.0345-2.3104-2.311-2.3104h-15.4492c-1.2765,0-2.311,1.0334-2.311,2.3104v21.8808h-9.6278
	c-1.275,0-2.3094,1.0335-2.3094,2.3094v13.6176c0,1.2759,1.0345,2.3104,2.3094,2.3104h9.6278v40.6606
	c0,18.9811,10.9799,30.3315,29.2165,30.3315c3.1605,0,5.3959-0.353,7.8826-1.2586c1.5848-0.576,2.6132-2.1169,2.6054-3.8041
	l-0.0478-12.6437c-0.0231-1.3854-1.2487-2.4331-2.6224-2.2519C285.0448,189.6504,283.9995,189.7456,283.2626,189.7456z
	 M338.2114,189.7456c-9.6772,0-14.1434-4.4652-14.1434-14.515v-36.7519h10.1027c1.275,0,2.3094-1.0345,2.3094-2.3104v-13.6176
	c0-1.2759-1.0345-2.3094-2.3094-2.3094H324.068V98.3604c0-1.2769-1.0345-2.3104-2.3094-2.3104h-15.4508
	c-1.2765,0-2.311,1.0334-2.311,2.3104v21.8808h-9.6263c-1.2765,0-2.3094,1.0335-2.3094,2.3094v13.6176
	c0,1.2759,1.0329,2.3104,2.3094,2.3104h9.6263v40.6606c0,18.9811,10.9799,30.3315,29.2165,30.3315
	c3.1605,0,5.3959-0.353,7.8842-1.2586c1.5848-0.576,2.6116-2.1169,2.6054-3.8041l-0.0493-12.6437
	c-0.0216-1.3854-1.2472-2.4331-2.6224-2.2519C339.992,189.6504,338.9483,189.7456,338.2114,189.7456z M74.1457,146.3479v13.1275
	c0,1.2761,1.0343,2.3104,2.3102,2.3104h35.7042c-2.6674,16.8397-16.5061,28.8448-35.0135,28.8448
	c-22.5091,0-40.0148-18.6743-40.0148-41.517c0-23.0094,17.6725-41.5168,39.8481-41.5168c12.4275,0,22.9798,5.0321,29.9016,14.1098
	c0.7121,0.933,2.0136,1.1777,3.0185,0.5709l13.3986-8.1046c1.0416-0.6313,1.3077-2.0158,0.5934-3.0021
	c-9.8216-13.5593-26.7308-22.5797-46.7455-22.5797c-33.1789,0-60.3568,27.1759-60.3568,60.5226
	c0,33.3457,26.6776,60.357,60.1902,60.357c33.1799,0,55.8057-25.1767,55.8057-57.6885v-5.1927c0-1.2759-1.0345-2.3093-2.3104-2.3093
	H76.2155C75.0727,144.28,74.1457,145.2059,74.1457,146.3479z"/>
<path id="orange" class="st1" d="M372.7313,185.0394c-9.5785,0-12.2672,2.6889-12.2672,12.268s2.6887,12.2681,12.2672,12.2681
	c9.58,0,12.2687-2.689,12.2687-12.2681S382.3113,185.0394,372.7313,185.0394z"/>
</svg>
