<?xml version="1.0" encoding="utf-8"?>
<!-- Generator: Adobe Illustrator 23.0.3, SVG Export Plug-In . SVG Version: 6.00 Build 0)  -->
<svg version="1.1" id="logosvg.com" xmlns="http://www.w3.org/2000/svg" xmlns:xlink="http://www.w3.org/1999/xlink" x="0px"
	 y="0px" viewBox="0 0 400 300" style="enable-background:new 0 0 400 300;" xml:space="preserve">
<style type="text/css">
	.st0{fill:#231F20;}
</style>
<path id="logo" class="st0" d="M106.317,203.315c0,0-0.228,22.589,20.307,22.589c20.145,0,31.726-29.425,39.698-62.423l10.099,3.556
	c-12.321,20.078-11.18,38.788,2.282,38.788c13.462,0,24.87-18.482,24.87-18.482s7.53,3.879,16.428,3.879
	c8.898,0,22.36-6.845,22.36-20.991c0-14.147-8.214-23.958-15.06-29.89c-6.845-5.933-7.073-10.952-7.073-10.952
	c0-7.301,7.53-5.476,8.443-4.335c0.913,1.141,7.758,8.899,7.758,8.899l6.617-13.234c0,0-2.738-5.933-15.744-5.933
	c-13.005,0-23.045,10.268-23.045,22.132c0,11.865,12.321,24.642,14.831,26.696c2.51,2.053,8.899,7.758,8.899,13.462
	c0,5.704-6.161,6.389-6.161,6.389c-7.301,0-16.2-15.516-16.2-15.516s-5.705,13.462-12.321,13.462c-6.617,0-7.301-6.845-7.301-6.845
	c0-11.18,8.443-24.87,8.443-24.87l-1.369-2.054c-2.966,1.598-8.898,1.825-8.898,1.825c-12.093,0-16.428-13.462-16.428-13.462
	l-1.825,0.228c-0.228,1.597-5.691,25.102-5.691,25.102c-1.417,6.119-12.25,51.333-22.887,51.333
	c-11.408,0-9.811-12.093-9.811-12.093l23.729-17.797c0,0,2.738-22.817-12.093-22.817
	C125.027,159.963,106.317,175.022,106.317,203.315z M130.047,169.09c4.638-1.202,4.563,6.845,4.563,6.845l0.685,10.496l-9.355,6.161
	C124.342,188.256,123.886,170.687,130.047,169.09z M35.585,174.338c-0.238-26.923,30.574-59.095,65.485-59.095
	c0,0,35.138,0.684,35.138,20.307c0,19.623-22.589,21.676-22.589,21.676c8.899-36.507-17.655-35.982-17.655-35.982
	c-30.118,0-41.44,35.754-41.44,47.619s7.301,24.186,9.811,27.609c2.51,3.423-2.966,3.879-2.966,3.879S35.813,200.121,35.585,174.338
	z M104.949,131.899c-1.598,2.738-4.942,18.94-4.792,24.642c0.228,8.67,1.597,23.729,1.597,23.729
	c0,50.425-21.448,66.397-39.245,66.397c-17.797,0-25.099-16.656-25.099-16.656l11.637-15.743
	c5.477,11.636,10.268,24.642,19.166,24.642c8.899,0,8.899-15.287,8.899-15.287c-3.423-18.482-2.51-41.07-2.51-41.07
	C75.515,140.57,104.949,131.899,104.949,131.899z M266.092,172.741c15.287,0,31.487-21.677,31.487-44.493
	c0-22.817-18.71-24.642-21.22-24.642c-2.509,0-28.293,7.301-28.293,44.036C248.066,147.643,247.382,172.741,266.092,172.741z
	 M262.897,125.054c1.141-16.884,8.67-11.408,12.55-2.053c3.089,7.449,7.073,35.138,0.228,35.138
	C268.83,158.138,262.282,134.16,262.897,125.054z M363.063,142.167c0-2.738-2.509-4.791-8.214-4.791
	c-5.704,0-13.462,2.053-20.078,6.389c-6.617,4.335-12.549-0.684-12.549-9.126c0-8.443,0.228-17.569,5.248-23.73
	c5.019-6.16,17.341-15.287,17.341-36.963s-14.831-20.763-14.831-20.763c-15.971,0-24.87,25.555-24.87,43.352s0,54.76,0,54.76
	s0.912,7.073,7.986,7.073c7.073,0,18.938-6.616,25.326-10.495c6.389-3.879,13.006-5.932,15.972-5.932
	c2.967,0,3.194,2.053,3.194,3.194c0,1.14-1.369,2.738-8.899,5.475c-7.529,2.738-232.503,94.234-236.61,96.971h44.492
	c0,0,114.084-55.444,141.464-67.994c27.38-12.549,50.653-23.73,57.955-27.38C363.291,148.555,363.063,144.905,363.063,142.167z
	 M322.677,75.085c0-7.53,1.598-15.516,5.476-15.516c3.194,0,5.019,3.194,5.019,15.972c0,12.778-3.36,18.97-6.389,24.87
	c-3.308,6.446-4.107,0.457-4.107,0.457S322.677,82.615,322.677,75.085z"/>
</svg>
