<?xml version="1.0" encoding="utf-8"?>
<!-- Generator: Adobe Illustrator 23.0.3, SVG Export Plug-In . SVG Version: 6.00 Build 0)  -->
<svg version="1.1" id="logosvg.com" xmlns="http://www.w3.org/2000/svg" xmlns:xlink="http://www.w3.org/1999/xlink" x="0px"
	 y="0px" viewBox="0 0 400 300" style="enable-background:new 0 0 400 300;" xml:space="preserve">
<style type="text/css">
	.st0{fill:#ED1D24;}
</style>
<path id="logo" class="st0" d="M360.8,236.6H39.2V63.4h321.7V236.6z M247.9,83.5c-3.4,2-6.1,4.4-8.4,7.2c-2.3,2.8-4.1,6.3-5.8,9.7
	c-1.8,3.7-2.9,7.6-3.6,12c-0.7,4.5-0.9,9.4-1.1,14.5c-0.6,12.6-0.2,25.7-1.1,37.9c-0.1,1-0.1,2.3-0.4,3.5c-0.2,0.9-0.8,2.5-0.3,3.3
	c0.7,1.4,3.4,0.1,4.2-0.3c3-1.5,5.7-3.4,6.5-6.7c0.6-2.3,0.4-5.7,0.4-8.5c0-6.1,0.2-11.6,0.2-17.5c0-2.9,0.1-5.8,0.2-8.6
	c0.3-5.7,0.2-11.3,0.9-16.8c0.7-5.3,1.5-10.1,3-14.6c1.4-4.1,3.7-8.6,6.7-11c1.6-1.3,4.1-2.4,6.7-1.5c2.2,0.7,3.7,2.2,4.5,4.3
	c1.9,4.7,0.3,11.2-1.3,14.7c-3.8,8.3-9.8,13.9-15.3,20.1c-1.3,1.5-2.8,3.7-2.4,6.3c0.4,2.6,1.9,3.9,3.3,5.6c1.3,1.5,2.7,3.2,4.2,4.6
	c1.6,1.6,3.1,2.9,4,4.9c1.1,2.4,0.6,5.1-0.4,7.1c-1,2-2.2,3.8-3.4,5.4c-2.7,3.5-5.4,6.7-8.1,9.6c-1.3,1.4-2.8,3.1-4.3,4.5
	c-0.7,0.7-1.5,1.5-2.2,2.2c-0.8,0.9-1.5,1.6-1.9,2.5c-1.6,3.6,0.6,7.9,1.9,10.2c0.5,0.8,1,2.1,2.1,2.3c0.8,0.2,1.4-0.2,1.7-0.5
	c0.6-0.5,1-1.2,1.4-1.9c1.2-2.1,2.7-4.1,4.1-5.9c4.8-6.2,10.2-12.2,15.4-17.8c2.2-2.3,4.5-4.4,5.7-7.5c0.7-1.6,1-3.6,0.8-5.6
	c-0.5-3.8-2.6-6.3-5.1-8.2c-4-2.9-7.5-5.5-11.1-8.8c-1.3-1.2-4-3.3-2.6-5.7c0.6-1.1,1.9-1.7,3-2.5c1.2-0.8,2.2-1.5,3.2-2.2
	c6.4-4.5,12.3-9.5,16.4-16.6c1.3-2.3,2.5-4.8,3-7.9c1.2-6.8-1.3-13.2-4.7-16.6c-1.9-1.9-4.3-3.2-8-3C255.3,80,251.2,81.6,247.9,83.5
	z M116.4,212.7c1.4-2.1,1.4-5,1.4-8.5c0-1.9-0.2-4.2,1.7-4.2c0.6,0,1.4,0.5,2.1,0.8c9,4.2,17.4,8.5,26.3,12.7
	c1.3,0.6,2.7,1.7,4.4,1.6c1.6-0.1,2.5-1.3,3.2-2.4c0.8-1.2,1.6-2.5,1.8-3.9c0.5-2.9-2.5-3.7-4.4-4.6c-10.6-5.1-21.1-10.3-31.6-15.4
	c-0.8-0.4-1.8-0.7-2.4-1.2c-1.4-1-0.9-4.1-0.9-6.7c0-1,0-1.8,0-2.8c0-1-0.1-2,0.1-2.7c0.3-1,1.4-1.5,2.4-2.1
	c9-5.6,16.2-12.5,22.5-20.6c2.3-3,4.5-6.1,6.3-9.4c1.9-3.5,3.3-7.2,3.7-11.9c0.4-5.1-0.9-9.4-2.9-12.6c-1.8-3-4.8-5.6-8.3-7.3
	c-4.4-2.1-10.6-3.1-16.7-2.3c-1.1,0.1-2.1,0.3-3.1,0.5c-6.1,1.2-11.6,2.9-17.1,4.8c-10.9,3.8-20.8,8.4-30.1,13.7
	c-3.1,1.7-6.2,3.5-9,5.5c-2.8,2-5.2,4.5-6.3,8.2c-0.8,2.7-0.8,6.3-0.9,10c0,1.1,0.1,2.5,1,2.6c0.7,0.1,1.5-0.7,1.9-1.2
	c3.5-3.8,7.8-6.9,11.9-9.9c12.2-8.8,25.7-15.7,40.3-22.1c2.9-1.3,6-2.5,9.3-3.1c3.6-0.7,7.8-1,11.4-0.4c3.8,0.6,6.5,1.7,8.4,4
	c2,2.4,2.9,5.4,2.9,9.6c0,4-0.9,7.6-1.9,10.5c-2.2,6.2-6.4,10.4-10.3,14.7c-2.9,3.1-6.3,6.2-9.9,8.8c-0.8,0.6-2.8,2.2-4.1,2.1
	c-1.5-0.1-1.3-2.6-1.2-4.4c0.1-1.7,0.1-3.6,0.1-5.1c0.1-8.6,0.4-17.1,0.6-25.7c0-1.7,0.2-3.7,0-5c-0.7-3.3-4.3-1.1-6.1-0.2
	c-1.4,0.7-2.4,1.1-3.2,2.1c-1.2,1.3-0.8,4.2-0.9,6.5c-0.1,1.9-0.1,3.8-0.1,5.7c0,10.6-0.3,20.6-0.4,31.3c0,1,0.1,2-0.2,2.7
	c-0.3,0.8-0.9,1-1.7,1.4c-3.7,2.1-7.3,4.1-10.9,6.1c-1.1,0.6-2.9,1.3-2.9,2.9c0,1.5,1.3,1.8,2.4,2.3c3.4,1.6,6.5,3.2,9.8,4.7
	c1.6,0.7,2.7,1.1,3,2.8c0.3,1.7,0,3.6,0,5.3c0,5.9-0.3,10.8-0.3,16.6C111.5,216.2,114.5,215.4,116.4,212.7z M321.3,130.1
	c-1.4,2.2-2.3,4-3.7,6.1c-0.5,0.8-1.5,2.4-2.8,2.1c-1.4-0.3-0.4-4.1-0.5-5.4c-0.1-1.6-1.2-3.5-3.1-3.2c-1.5,0.2-2.8,2.1-3.6,3.3
	c-1.8,2.9-2.9,6.5-4.4,9.6c-0.8,1.6-1.6,3.1-2.8,4.2c-0.5,0.4-1.3,1-2.1,0.8c-0.7-0.1-1.4-1.3-1.6-2.2c-0.3-1-0.5-2.3-0.6-3.3
	c-0.4-3.1,0-6.9-2.3-7.8c-1.7-0.7-3.2,0.6-3.8,1.4c-0.4,0.5-0.8,1-1.4,1.2c-0.9,0.3-1.9,0-2.7,0c-2.6,0.1-4.8,1.5-6.4,2.7
	c-2.2,1.6-4.2,3.9-5.8,6.3c-1.6,2.4-2.9,5.1-3.7,8.4c-0.8,3.4-1,7.8,1.6,9.3c2.2,1.3,4.9-0.6,6.3-1.6c3-2.2,4.6-4.4,7-7
	c0.5-0.6,1-1.2,1.6-1.9c0.4-0.5,1-1.9,1.7-1.7c0.5,0.1,0.8,1.3,1.1,1.8c0.3,0.8,0.6,1.4,0.9,2c0.7,1.2,2,2.8,3.4,2.9
	c3.1,0.4,5.1-1.7,6.5-3.4c0.7-0.9,1.4-1.8,2-2.9c0.5-0.8,1.3-2.8,2.4-2.6c0.7,0.1,0.7,1,0.9,1.9c0.5,2.3,1.7,4.1,4.2,3
	c1.3-0.5,2.4-1.7,3.4-2.9c2.1-2.5,3.3-4.8,4.8-7.8c0.7-1.2,1.3-3.5,2.7-3.6c1.8-0.1,2.2,2.7,2.5,4.1c0.7,2.8,1.7,6,4.1,7
	c1.5,0.7,3.2,0.2,4.4-0.3c1.4-0.6,2.3-1.4,3.1-2.2c1.1-1.1,2.9-3,3.4-4.6c0.2-0.5,0.4-1.7-0.3-1.9c-0.9-0.3-1.6,1.1-2.6,1.2
	c-1.5,0.2-2.7-0.9-3.3-1.8c-1.1-1.7-1.6-4.3-2.2-6.8c-0.6-2.5-0.9-5-2.3-6.6c-0.6-0.7-1.6-1.2-2.6-1.1
	C322.8,127,322.1,128.7,321.3,130.1z M285.8,143c2.5-0.4,1.2,2.7,0.5,3.8c-0.6,1.1-1.2,2-1.7,2.9c-0.6,1-1.2,1.9-1.9,2.7
	c-0.6,0.8-1.5,1.8-2.4,2.2c-0.5,0.2-1.5,0.3-1.9,0.1c-0.9-0.6-0.1-2.8,0.3-3.7c1-2.5,2.1-4.1,3.8-5.8
	C283.4,144.3,284.5,143.2,285.8,143z M205.3,154c-1.5,1.2-3,3-3.4,5.3c-0.7,4.5,3.3,6.4,7.5,5.6c3.2-0.6,5.8-2.4,7.3-4.6
	c0.7-1.1,1.5-2.8,1.3-4.6c-0.3-3.1-3.2-4.6-6.6-4.3C208.9,151.7,206.9,152.7,205.3,154z M190.6,157.3c-1.4,2.3-2.6,4.6-3.7,7.1
	c-0.7,1.6-1.5,3.2-2.4,4.8c-0.7,1.1-2.2,3.5-3.9,3.3c-0.8-0.1-1.4-0.9-1.7-1.4c-0.6-1.1-0.9-2.9-1-4.5c-0.2-1.5,0.1-3.9-0.5-5
	c-0.8-1.4-2.5-0.9-3.6-0.1c-1.3,1-1.6,2.3-2,4c-1,3.5-2.2,7.1-4.1,9.9c-0.7,1-1.8,2.6-3.2,2.4c-0.8-0.1-1.6-1-2-1.9
	c-1-1.8-1.6-3.8-1.9-5.9c-0.2-1.2-0.2-2.4-0.6-3.2c-0.3-0.5-0.8-1.1-1.3-1.3c-1.4-0.7-3.6,0-4.5,0.6c-1,0.6-1.3,1.8-2.3,2.1
	c-1.3,0.5-2.2,0-3.5-0.1c-2.7-0.1-4.6,1.1-6.1,2.5c-2.9,2.5-5.5,6.5-6.7,10.4c-0.7,2.1-1.3,4.9-0.8,7.5c0.5,2.4,2,4.2,4.2,4.3
	c2.5,0.1,4.5-1.3,6.1-2.5c1.8-1.3,2.9-2.6,4.3-4.2c1-1.1,2.1-2.2,2.9-3.5c0.2-0.3,0.7-1.1,1.1-1.1c0.6,0.1,0.8,1.2,1,1.9
	c0.3,0.7,0.7,1.4,1,1.9c0.7,1.1,1.7,2.5,3,2.9c1.6,0.4,3.4-0.5,4.5-1.2c2.8-1.9,4.6-4.7,6.3-7.7c0.3-0.6,0.9-1.4,1.5-1.3
	c0.6,0.1,0.7,1,0.9,1.6c0.6,1.9,1.7,3.8,3.4,4.4c1.1,0.4,2,0,2.7-0.4c1.9-1.2,3.4-3.3,4.6-5.2c0.4-0.7,0.9-1.6,1.7-1.6
	c1.5,0.1,1.1,2.7,1.1,4.4c0,1.9-0.1,3.8-0.1,5.5c0,3.8-0.1,7.1-0.2,11.1c-0.2,5.4-0.2,11.1-0.3,16.6c0,1.7-0.3,4.3,0.5,5
	c0.6,0.6,2.3,0.3,3.7,0.3c1.2,0,2.7,0.2,3.5-0.1c1.6-0.5,1.2-2.5,1.3-4.7c0.3-9.3,0.2-18.5,0.5-27.6c0.3-9.5,0.3-18.2,0.5-27.6
	c0-0.9,0.3-3,0-3.9c-0.3-0.8-1.1-1-1.6-0.9C191.8,155.3,191.2,156.4,190.6,157.3z M150.7,172.8c2.8-0.4,1.1,3.6,0.5,4.7
	c-1.2,2.4-2.6,4.9-4.4,6.7c-0.7,0.7-2.5,2.3-3.6,1.5c-0.9-0.6-0.2-3,0.1-4c0.4-1.4,0.9-2.6,1.4-3.5c1.1-2,3-4.1,4.8-5
	C150,173,150.4,172.9,150.7,172.8z"/>
</svg>
