<?xml version="1.0" encoding="utf-8"?>
<!-- Generator: Adobe Illustrator 14.0.0, SVG Export Plug-In . SVG Version: 6.00 Build 43363)  -->
<!DOCTYPE svg PUBLIC "-//W3C//DTD SVG 1.1//EN" "http://www.w3.org/Graphics/SVG/1.1/DTD/svg11.dtd">
<svg version="1.1" id="redbull" xmlns="http://www.w3.org/2000/svg" xmlns:xlink="http://www.w3.org/1999/xlink" x="0px" y="0px"
	 width="400px" height="300px" viewBox="1500.79 2684.645 400 300" enable-background="new 1500.79 2684.645 400 300"
	 xml:space="preserve">
<path fill="#E21B4D" d="M1779.808,2787.597h-15.503v30.429c0,9.918,10.592,18.393,23.688,18.393c13.098,0,24.557-8.57,24.557-18.393
	v-30.429h-15.505v27.444c0,4.525-3.851,8.185-8.57,8.185c-4.813,0-8.666-3.66-8.666-8.282V2787.597z"/>
<path fill="#E21B4D" d="M1533.871,2770.841v63.169h-16.081v-76.169h28.984c12.615,0,22.918,10.208,22.918,22.629
	c0,10.593-7.415,19.451-17.43,21.763l22.341,31.777h-19.163l-16.082-24.94v-18.2h3.756c5.97,0,10.784-4.429,10.784-9.917
	c0-5.489-4.525-10.112-10.496-10.112H1533.871z"/>
<path fill="#E21B4D" d="M1681.876,2834.011v-79.828h-15.214v37.65c-4.044-3.948-9.148-6.162-15.022-6.162
	c-12.519,0-22.726,11.074-22.726,24.844c0,13.674,10.208,24.844,22.726,24.844c5.97,0,11.555-2.311,15.022-6.548v5.2H1681.876
	L1681.876,2834.011z M1655.973,2822.358c-6.163,0-11.17-5.488-11.17-12.229c0-6.741,5.007-12.23,11.17-12.23
	c6.163,0,11.17,5.489,11.17,12.23C1667.046,2816.87,1662.04,2822.358,1655.973,2822.358"/>
<path fill="#E21B4D" d="M1745.816,2792.604c4.141-3.852,6.74-9.053,6.74-14.733c0-5.2-2.023-9.919-5.489-13.674
	c-3.658-3.948-10.014-6.355-18.681-6.355h-25.903v76.169h33.511c12.807-0.192,23.207-9.919,23.207-21.858
	C1759.104,2803.485,1756.023,2797.322,1745.816,2792.604 M1732.912,2820.818h-14.54v-49.302h10.207c4.43,0,8.186,3.37,8.186,7.896
	c0,4.526-3.756,8.186-8.186,8.186h-5.393v13.771h9.918c5.393,0,9.438,4.429,9.438,9.821
	C1742.35,2816.582,1738.786,2820.529,1732.912,2820.818"/>
<path fill="#E21B4D" d="M1588.085,2804.833c0-5.104,4.141-9.244,9.244-9.244c5.104,0,9.244,4.141,9.244,9.244H1588.085z
	 M1621.596,2813.5c0.097-1.06,0.193-2.119,0.193-3.178c0.193-16.467-10.592-25.422-24.459-25.422s-25.133,11.363-25.133,25.422
	c0,14.059,11.267,25.422,25.133,25.422c10.592,0,18.874-4.814,23.111-12.326l-12.326-5.682c-1.541,3.371-5.2,5.778-9.533,5.778
	c-5.681,0-10.399-4.334-10.399-10.015C1588.567,2813.5,1621.596,2813.5,1621.596,2813.5"/>
<rect x="1819.674" y="2754.183" fill="#E21B4D" width="15.214" height="79.828"/>
<rect x="1845.577" y="2754.183" fill="#E21B4D" width="15.214" height="79.828"/>
<path fill="#FFD300" d="M1654.336,2886.78c0-20.606,16.66-37.266,37.266-37.266c20.606,0,37.266,16.659,37.266,37.266
	s-16.66,37.266-37.266,37.266C1670.996,2924.046,1654.336,2907.291,1654.336,2886.78"/>
<path fill="#FFD300" d="M1661.654,2864.633c0.578,0.288,1.155,0.577,1.829,0.962c2.794,1.927,4.623,3.563,8.86,7.126
	c1.251,1.252,2.696,3.275,3.755,4.526c2.312,2.889,3.949,4.911,4.237,7.317c0.674,4.814,1.348,7.512,3.178,12.423
	c0.191,0.481,0.962,1.155,1.444,1.733c1.155,1.444,1.637,3.755,3.755,5.008c1.155,0.674,1.349,0.77,1.733,1.059
	c0.578,0.48-0.385,2.215-3.37,1.83c1.541,0.77,1.349,2.504-0.867,2.6c-4.333,0.193-7.03-2.312-7.607-2.986
	c-0.29-0.287-1.156,0.867-2.697,1.445c-1.541,0.771-3.659,0-5.296,0.29c-1.54,0.287-3.563,1.251-5.199,1.348
	c-2.889,0.097-3.274-1.927-3.274-3.66c0-0.386,0-0.673,0-0.771c-0.289,1.061-1.348,2.889-1.348,2.889
	c-0.386,0.867-0.964,1.927-2.022,2.312l-3.082,0.386c-2.408,1.059-4.814,1.829-7.319,2.695c-1.444,0.289-3.081,0-4.14-0.866
	c-0.867-0.675-1.348-1.54-1.83-2.407c-0.481-0.192-1.155,0-1.734-0.192c-0.481-0.097-0.77-0.481-1.059-0.771l-2.119-3.563
	c-0.192-0.481-0.192-1.155,0-1.636c0.385-0.771,1.252-1.156,2.119-1.156c1.541-0.097,3.274-0.578,4.815,0
	c0.674-0.771,1.733-0.674,2.696-0.867c-0.385-0.577-0.963-0.866-1.445-1.348c-2.792,0.674-5.874,0.192-8.57-0.289
	c-2.504-0.577-4.622,0.867-7.126,0.481l-0.771,1.637c-1.156,1.251-1.252,3.37-2.984,4.237c-1.253,0.289-2.216,1.156-3.275,1.733
	c-1.926,1.06-4.526,0.577-6.644,0.192c-0.867-0.097-1.444,0-2.215,0.289c-0.674,0.482-1.444,1.252-2.215,1.83
	c-1.252,0.481-2.311,1.54-3.659,1.637c-0.771,0-1.541-0.482-2.311-0.289c-0.963,1.06-1.444,2.792-2.985,3.273
	c-1.54,0.482-3.466,0.097-5.007-0.288c-0.481,0.192-0.77,0.577-1.348,0.481c-1.06-0.289-2.119-0.578-3.082-1.155
	c-0.385-0.386-0.481-0.866-0.577-1.252c0-0.674,0.577-1.253,0.866-1.83c0.097-0.674,0.097-1.636,0.386-2.312
	c0.481-1.059,1.54-1.732,2.6-2.214c0.097-0.771,0.578-1.444,1.252-1.83c1.252-0.674,2.6-2.215,4.237-1.348l1.733,1.444
	c1.541-0.674,1.156-2.215,1.926-3.467c0.385-0.867,0.867-1.829,1.83-1.829c0.674-0.097,1.444,0.097,2.118,0
	c0.963-0.29,2.022-0.674,2.697-1.445l-0.096-0.577c-0.963-1.83-1.252-4.044-1.349-6.26c-1.733,0.193-3.563,0.482-5.393,0.097
	c-2.695-0.386-5.296-2.504-6.355-5.2c-1.155-2.6-0.674-6.26,1.155-8.474c1.445-1.732,3.082-3.274,4.815-4.622
	c-0.578-0.193-1.251-0.097-1.829-0.289c-2.504-0.385-5.007-2.601-5.585-5.104c-0.385-1.637,0-3.178,0.771-4.526
	c0.289-0.288,0.578-0.577,1.059-0.385c1.252,0.481,1.638,1.155,2.792,1.733l0.674,0.386c3.177,1.059,7.415,1.059,8.667,5.007
	c0.771,3.081-1.155,5.393-3.371,7.126c-1.733,1.251-3.466,2.792-4.333,4.622c-0.385,1.348-0.193,2.696,0.963,3.659
	c1.156,1.155,3.178,1.155,4.622,0.578c2.697-1.156,5.201-2.89,7.607-4.719c2.312-1.733,5.104-2.407,8.089-2.504
	c1.348-0.289,2.503-0.866,3.563-1.733c1.83-1.733,3.755-3.178,6.066-3.755c1.059-0.193,2.119-0.29,3.178-0.386
	c0.867-0.385,1.444-1.443,2.118-1.926c3.178-2.793,7.415-2.696,10.786-4.911c1.926-1.444,4.044-2.407,6.547-2.311
	c1.156,0.095,2.215,0.288,3.178,0.674L1661.654,2864.633L1661.654,2864.633z M1664.832,2897.372
	c-2.118,0.097-3.466,0.578-4.911,0.771c0.096,1.349,0.867,2.504,1.926,3.947C1662.425,2899.876,1664.254,2899.009,1664.832,2897.372
	"/>
<path fill="#FFD300" d="M1719.046,2897.854c0.962,1.444,1.541,2.89,2.407,4.43c0.866-1.637,1.637-3.178,2.407-4.141
	C1723.764,2898.046,1721.261,2898.336,1719.046,2897.854 M1721.068,2904.98c-0.097,0.287-0.289,0.384-0.674,0.384
	c0.288,1.349-0.674,3.853-3.081,3.949c-1.639,0.097-4.334-1.542-5.875-1.638c-1.638-0.096-4.622,1.155-6.355-1.445
	c-2.312,2.794-5.007,3.564-7.318,3.468c-1.348,0-2.792-0.771-0.77-2.504c-4.43,1.444-4.43-1.541-3.659-2.118
	c0.481-0.386,1.059-0.674,2.695-2.311c6.164-6.452,3.852-17.623,10.593-25.037c2.6-2.889,4.719-4.525,10.015-8.281
	c1.829-1.252,3.659-3.081,5.392-4.334l0.097,0.192v-0.096c1.06-0.771,2.022-1.54,3.178-1.829c2.407-0.29,4.623,0.48,6.452,1.732
	c0.963,0.674,1.733,1.445,2.505,2.408c0.577,0.577,1.442,0.577,2.213,0.866c2.215,0.385,4.142,1.253,5.971,2.407
	c1.252,0.77,2.312,2.118,3.852,2.312c1.83,0.288,3.468,0.866,5.104,1.829c1.926,1.252,3.659,2.793,5.971,3.178
	c4.622,0.481,8.474,3.081,12.133,5.682c2.118,1.252,4.622,2.696,7.223,1.83c0.771-0.29,1.348-0.964,1.54-1.638
	c0.192-1.732-0.866-3.081-1.925-4.333c-2.216-2.6-6.067-4.814-5.586-8.57c0.675-2.793,3.756-4.43,6.163-5.2
	c1.348-0.48,2.985-0.289,4.141-1.444c0.578-0.385,0.866-1.733,1.829-1.252c0.771,0.482,0.867,1.445,0.963,2.311
	c0.386,2.697-0.192,5.393-2.695,6.935c-1.155,0.771-2.407,1.059-3.756,1.348c2.022,1.637,4.044,3.659,5.199,5.97
	c0.674,1.349,1.061,2.505,1.156,4.045c-0.096,2.889-1.83,5.393-4.333,6.837c-1.445,0.771-3.081,1.06-4.814,1.06
	c-0.674,0-1.252-0.193-1.83-0.193c0.288,1.349,0.288,3.178,0,4.719c-0.097,0.771-0.577,1.637-0.577,2.601
	c0.385,0.48,0.962,0.48,1.443,0.48c1.252,0,2.793-0.097,3.467,1.252c0.578,1.252,0.866,2.696,1.348,3.948
	c0.193,0.192,0.29,0.675,0.578,0.578c0.867-0.771,1.733-1.83,2.985-1.541c1.156,0.771,2.311,1.638,3.467,2.504
	c0.288,0.288,0.385,0.674,0.482,1.155c0.962,0.386,2.213,1.059,2.504,2.216c0.19,0.77,0.095,1.54,0.288,2.214
	c0.289,0.771,1.06,1.733,0.48,2.696l-0.385,0.288l-3.659,1.157c-0.288,0-0.578-0.193-0.867-0.482
	c-1.925-0.097-4.236,0.482-5.776-0.867c-0.675-0.577-1.156-1.252-1.638-2.021c-1.154,0.578-2.793,0.963-3.947,0.191
	c-2.408-1.828-4.815-3.658-8.09-3.562c-1.444,0.289-3.177,0.674-4.622,0.097c-1.347-0.964-2.889-1.445-3.948-2.891
	c-1.54-1.636-1.54-3.562-2.118-5.584c-2.118,0.481-4.429,0.192-6.548,0.097c-1.734-0.097-3.371,0.192-5.007,0.577
	c-2.022,0.385-4.237,0.578-6.356,0.481l-1.059,0.771c0.48,0.097,0.963,0.097,1.348,0.482l0.386,0.383
	c1.732,0.194,3.755-0.095,5.393,0.291c0.384,0.096,0.77,0.48,0.963,0.866c0.191,0.481,0.191,1.059-0.097,1.444
	c-0.866,1.155-1.348,2.504-2.504,3.466c-0.288,0.386-1.154-0.095-1.252,0.578c-0.384,1.733-2.021,3.179-3.659,3.563
	c-0.674,0.096-1.444,0-2.021-0.193c-2.022-0.673-4.046-1.251-6.067-1.829c-0.673-0.192-1.251-0.866-1.829-1.252
	c-0.866,0-2.119,0.289-2.696-0.481c-0.289-0.192-0.577-0.866-0.674-1.156C1721.838,2907.869,1721.356,2906.327,1721.068,2904.98"/>
<path fill="#E21B4D" d="M1660.691,2876.766c0.578,1.443,0.578,3.37,0.192,4.91c-0.096,0.097-0.192,0.097-0.289,0
	c-0.289-1.348-0.578-2.695-1.059-4.044c-0.289-0.771-1.252-1.444-0.867-2.312c0.193-0.192,0.578-0.192,0.867-0.096
	C1660.017,2875.707,1660.307,2876.188,1660.691,2876.766 M1676.098,2890.246c1.06,1.252,1.83,2.601,1.445,4.237
	c-0.193,0.289-0.097,0.866-0.578,0.963c-0.193,0.097-0.385-0.097-0.385-0.289c-0.096-0.866-0.096-1.829-0.578-2.504
	c-0.578-0.577-1.252-1.733-2.214-1.733c-0.674,0.193-1.156,0.965-1.541,1.444c0,0.098-0.097,0.098-0.193,0
	c-0.385-0.962,0.385-1.732,0.674-2.503c0.578-0.577,0.481-2.215,1.733-1.733C1675.328,2888.707,1675.521,2889.669,1676.098,2890.246
	 M1674.077,2901.705c0.096,0.578,0.096,1.445-0.482,1.83c-0.579,0.193-1.348,0.289-2.021,0.193c-0.193-0.097-0.386-0.193-0.29-0.386
	c0.29-0.867,1.157-1.83,2.12-2.022C1673.595,2901.32,1673.98,2901.32,1674.077,2901.705 M1603.782,2866.559
	c2.311,0.577,4.815,0.577,6.548,2.406c0.963,1.155,1.059,3.178,0.289,4.333c-1.348,2.313-4.044,3.468-5.682,5.49
	c-1.636,1.348-2.214,3.467-1.733,5.585c0.578,1.83,2.407,3.081,4.237,3.177c2.889,0.097,5.008-1.347,7.318-2.696
	c2.312-1.637,4.43-3.755,7.03-4.429c1.733-0.579,3.659-0.289,5.392-0.963c1.83-0.385,3.274-1.927,4.719-3.274
	c1.637-1.348,3.563-2.118,5.681-2.021c1.926,0.288,2.985-1.445,4.333-2.602c2.215-2.021,5.104-2.213,7.703-3.369
	c1.83-0.578,3.275-1.926,5.008-2.792c1.637-0.675,3.852-0.867,5.489-0.193c1.059,0.481,2.214,0.964,3.178,1.733l7.8,6.548
	c0.096,0.289,0.385,0.481,0.577,0.578c2.215,2.696,4.526,5.296,6.355,8.28c0.578,1.061,0.867,2.119,1.155,3.275
	c0.385,4.43,1.542,8.281,2.985,12.133c0.386,0.578,1.156,1.06,1.542,1.637c1.252,1.733,2.021,3.948,4.044,5.104l1.156,0.578
	c0.096,0.097,0.096,0.288,0,0.385l-0.193,0.192c-2.407,0.386-4.236-1.059-5.489-2.793c-0.77-1.54-1.829-3.177-3.562-3.852
	c-0.097,0-0.193,0.097-0.193,0.097c0.193,0.578,0.77,0.963,0.962,1.444c0.675,1.06,1.252,2.216,1.541,3.37
	c0.385,1.253,1.733,2.119,2.792,2.793l1.541,0.771c0.193,0.097,0.289,0.386,0.096,0.577l-0.192,0.097
	c-2.6,0.096-4.911-0.771-6.74-2.696c-0.385-0.48-0.964-0.866-1.637-0.866c-1.156,1.059-2.312,2.022-3.852,2.118
	c-1.637-0.289-3.371-0.289-4.815,0.289c-1.348,0.481-2.697,1.059-4.14,1.059c-0.674,0-1.445-0.289-1.734-0.963
	c0-0.867-0.578-1.83-0.096-2.695l0.963-1.444c0-0.192-0.097-0.386-0.289-0.386c-0.386-0.097-1.06,0.578-1.251-0.097
	c0.096-1.444,1.54-2.407,2.503-3.37c0.192-1.155,0.674-2.215,1.541-3.177c0-0.098-0.097-0.29-0.29-0.29
	c-1.251,0.192-2.503,0.481-3.852,0.481c-1.06,0.579-2.407,0.964-3.659,0.579c-0.289-0.193-0.193-0.482-0.097-0.675
	c1.348-1.83,1.83-4.14,1.445-6.355c-0.097-0.097-0.097-0.29-0.29-0.29c-0.192,0-0.192,0.193-0.288,0.29
	c-0.29,2.118-0.964,3.756-2.119,5.585c-0.867,0.866-2.214,0.866-3.37,1.156c-0.29,0.096-0.578,0.385-0.578,0.674
	c0,0.77,0.481,1.252,0.77,1.925l2.503,4.623c0.097,1.251-0.481,2.504-0.77,3.659c0.096,0.192,0.289,0.096,0.482,0
	c0.866-0.771,1.444-1.83,1.83-2.985c0.096-0.481-0.097-1.06-0.29-1.445l-2.599-5.199c0.192-0.288,0.578-0.288,0.866-0.386
	c0.578,0,1.156,0.289,1.733,0.482c0.578,1.54,1.252,3.178,2.311,4.525c0.193,0.867,0.482,2.022-0.095,2.697
	c-0.578,1.155-1.156,2.117-1.926,3.177c-0.675,0.674-1.637,0.577-2.601,0.674h-0.289c-2.312,1.252-4.719,2.022-7.222,2.793
	c-1.06,0.481-2.312,0.096-3.178-0.578c-0.867-0.674-1.252-1.636-1.83-2.503c-0.674-0.867-1.732-0.097-2.503-0.577
	c-0.674-1.061-1.349-2.119-1.926-3.275c0-0.288,0-0.577,0.289-0.771c0.866-0.288,1.83-0.288,2.792-0.385
	c0.867-0.098,1.83,0.097,2.407,0.674c1.155,1.348,1.637,3.178,3.37,4.044c1.349,0.097,2.504-0.287,3.659-0.866
	c0.674-0.385,1.444-0.963,1.444-1.83c-0.096-1.732-1.251-3.081-2.696-4.044c-1.444-0.77-2.985-1.829-4.044-3.177
	c-0.579-0.771-0.674-1.637-0.963-2.407c-0.096-0.194-0.481-0.194-0.578-0.098c-0.577,0.482-0.096,1.348-0.096,1.927
	c0.096,0.385,0.289,0.865,0.096,1.156c-0.866,0.674-2.021,0.287-3.082,0.384c-2.118-0.097-4.14-0.962-6.355-0.771
	c-2.119,0.096-5.007,1.541-6.548-0.577c-0.77-2.021-0.578-4.429-0.192-6.452c0-0.192-0.193-0.385-0.386-0.385
	c-0.192-0.097-0.385,0-0.481,0.192c-0.578,2.022-0.674,4.237-1.155,6.355c-0.771,1.83-2.119,3.755-3.948,4.718
	c-1.637,0.867-3.563,1.156-5.585,1.35c-3.659,0.096-7.029,0.77-9.34,3.947c-0.192,0.29-0.481,0.577-0.385,0.963
	c0.096,0.096,0.385,0.192,0.481,0.096c2.504-2.791,5.681-3.947,9.341-3.754c3.466,0,6.933-0.578,9.147-3.564
	c0.578-0.673,0.963-1.348,1.444-2.118c0.385,0,0.674,0.482,0.963,0.675c0.096,1.059-0.771,1.732-1.156,2.6
	c-0.481,0.963-0.963,2.118-1.926,2.695c-1.155,0.289-2.119,1.06-3.177,1.638c-1.06,0.481-2.408,0.675-3.66,0.386
	c-1.541-0.289-3.659-0.674-5.2,0c-0.77,0.48-1.444,1.348-2.215,1.83c-1.059,0.48-2.022,1.348-3.274,1.251
	c-0.866-0.192-1.926-0.771-2.696,0c-0.963,0.866-1.156,2.408-2.407,2.985c-1.444,0.771-2.985,0-4.43-0.096
	c0.193-1.445,0.385-2.793,1.348-3.852c0.578-0.097,1.06-0.193,1.541-0.579c0.577-0.481,0.963-1.155,1.348-1.829
	c1.252-0.771,2.697-1.349,3.467-2.696c0.578-1.251,0.578-2.407,1.541-3.563l0.481-0.193l2.6-0.192
	c1.06-0.481,2.022-0.963,2.985-1.734c0.29-0.287,0.386-0.77,0.29-1.25c-0.481-1.253-0.867-2.119-1.156-3.467
	s-0.096-2.697-0.289-4.237c-0.097-0.097-0.193-0.385-0.385-0.385c-1.733,0.385-3.371,0.866-5.296,0.577
	c-2.6-0.289-5.296-2.022-6.26-4.622c-0.866-2.216-0.674-5.394,0.963-7.222c1.542-1.926,3.466-3.371,5.393-5.008
	c0.289-0.193,0.289-0.577,0.385-0.867c0-0.385-0.385-0.674-0.674-0.865c-1.155-0.29-2.503,0.096-3.659-0.387
	c-2.022-0.674-3.563-2.6-3.852-4.717c-0.096-0.964,0.096-1.734,0.578-2.504C1601.182,2865.018,1602.337,2866.174,1603.782,2866.559
	 M1598.004,2909.602v0.289c-0.481,1.155-0.771,2.504-1.155,3.852c-0.868-0.096-1.637-0.385-2.312-0.675
	c-0.192-0.191,0-0.384,0-0.577c0.867-0.771,0.578-1.732,0.77-2.792c0.097-0.577,0.674-1.06,1.252-1.349
	C1597.233,2908.446,1597.619,2909.121,1598.004,2909.602 M1602.241,2905.557c-0.482,0.964-1.156,2.119-2.215,2.696
	c-0.385,0.097-0.867,0.097-1.251-0.096c-0.193-0.191-0.578-0.386-0.578-0.771c0.096-0.385-0.097-0.866,0.289-1.06
	c0.771-0.48,1.541-0.963,2.311-1.637c0.192-0.096,0.578-0.192,0.674,0C1601.855,2904.98,1602.145,2905.173,1602.241,2905.557
	 M1650.484,2905.173c0.096,0.384,0.674,0.866,0.289,1.251c-0.77,0.578-1.637,0.963-2.696,0.867c-0.77-0.578-0.674-1.638-1.348-2.408
	c-0.193-0.577-1.06-0.577-0.867-1.154l0.289-0.193c1.059,0,2.119,0,3.178-0.192
	C1650.388,2903.246,1650.099,2904.498,1650.484,2905.173"/>
<path fill="#E21B4D" d="M1711.343,2889.476c0.577,0.771,1.059,1.541,1.444,2.504c0.096,0.192,0,0.385-0.097,0.579
	c-0.096,0.191-0.289,0.385-0.578,0.191c-0.674-0.191-0.577-1.252-1.443-1.155c-0.578,0-0.964,0.481-1.445,0.77
	c-0.866,0.771-2.021,1.542-2.214,2.696c-0.193,0.386-0.098,1.06-0.482,1.253c-0.192,0.097-0.481-0.097-0.481-0.289
	c-0.096-1.541,0.386-2.985,1.444-4.045c1.06-0.866,1.829-2.118,2.697-3.178C1710.765,2888.707,1711.149,2889.091,1711.343,2889.476
	 M1711.728,2902.283c0.192,0.386,0.577,0.867,0.29,1.349c-0.387,0.288-1.061,0.097-1.542,0.097c-0.577-0.291-0.771-1.06-0.771-1.734
	c0-0.192,0-0.289,0.193-0.481C1710.572,2901.513,1711.246,2901.705,1711.728,2902.283 M1726.172,2872.816
	c0.289,0.387,0,0.771-0.192,1.061c-1.348,1.251-2.985,2.599-3.949,4.141c-0.385,0.48-0.674,1.06-0.865,1.637
	c0,0.096-0.097,0.096-0.193,0.096c-0.289-0.77,0.097-1.637,0.289-2.406c0.674-1.83,2.214-3.563,3.853-4.814
	C1725.305,2872.433,1725.979,2872.336,1726.172,2872.816 M1731.66,2866.654c1.06,0.674,1.444,2.118,2.696,2.407
	c2.118,0.481,4.237,0.964,6.163,1.926c1.349,0.675,2.6,1.638,3.853,2.697c1.154,0.577,2.6,0.577,3.852,0.962
	c1.829,0.481,3.274,1.829,4.91,2.889c2.119,1.637,5.104,1.445,7.512,2.504c3.852,1.252,6.933,4.237,10.496,5.97
	c1.828,0.964,4.623,1.349,6.451,0.29c1.253-0.867,2.022-2.022,1.734-3.659c-0.675-3.948-5.008-5.971-7.029-9.245
	c-0.387-0.77-0.676-1.83-0.482-2.695c0.771-1.927,2.793-2.985,4.526-3.659c1.348-0.674,3.081-0.481,4.333-1.253
	c0.481-0.289,0.866-0.674,1.155-0.962c0.288,0,0.288,0.288,0.385,0.48c0.385,2.312,0,4.72-2.022,6.067
	c-0.77,0.577-1.733,0.77-2.6,0.963c-0.77,0.289-2.311-0.289-2.215,1.059c0.192,0.675,0.77,1.06,1.252,1.541
	c2.697,2.215,5.2,5.104,5.488,8.57c0.097,2.697-1.732,5.008-4.044,6.163c-1.732,0.674-3.852,0.963-5.682,0.481
	c-0.481-0.096-1.251-0.578-1.637,0.096c-0.097,0.771,0.386,1.349,0.386,2.022c0.191,1.253,0.191,2.889-0.192,4.142
	c-0.193,0.963-1.155,2.117-0.29,3.081c0.868,1.348,2.601,0.962,4.045,1.155c0.77,0.097,1.061,0.963,1.252,1.54
	c0.289,0.771,0.289,1.638,0.577,2.216c0,1.444,1.638,2.021,2.408,2.984c0.963,1.06,1.829,2.889,3.467,2.793
	c0.577,1.155,0.865,2.215,1.06,3.563l-0.194,0.193c-1.348,0-3.177,0.385-4.14-0.578c-1.156-0.771-1.541-2.889-3.274-2.312
	c-0.771,0.577-1.829,0.771-2.696,0.386c-0.865-0.289-1.444-1.06-2.214-1.541c-2.312-1.733-5.393-2.6-8.378-1.925
	c-1.733,0.48-3.081-0.771-4.43-1.542c-1.83-0.771-2.312-2.695-2.696-4.334l-0.289-2.021c0-0.192,0.193-0.385,0.385-0.48h0.289
	c1.06,2.406,3.083,5.103,5.682,5.969c2.407,0.964,4.623-0.289,7.223,0.193c2.407,0.289,4.332,1.83,6.162,3.274
	c0.192,0,0.289-0.097,0.386-0.29v-0.191c-2.216-2.793-5.297-4.237-8.86-3.948c-2.984,0.578-5.873-0.386-7.606-2.89
	c-0.963-1.443-1.638-2.984-1.926-4.621c-0.289-1.927-0.675-4.045-1.349-5.778c-0.191-0.097-0.385-0.289-0.577-0.192l-0.192,0.289
	c0.288,1.83,0.866,4.044,0.192,5.97c-0.481,1.542-2.021,2.119-3.466,2.216c-1.445,0.096-2.792-0.193-4.334-0.193
	c-3.467-0.097-6.548,1.252-10.11,0.963c0.288-0.866,0.865-1.734,0.577-2.696c-0.097-0.192-0.385-0.192-0.577-0.192
	c-0.676,0.385-0.579,1.252-0.964,1.829c-0.77,1.252-2.215,2.407-3.658,2.696c-1.06,0.771-2.022,1.83-2.89,2.793
	c-0.289,0.289-0.289,0.866-0.191,1.252c0.674,1.732,2.694,1.927,4.236,2.407c0.77,0.097,1.443-0.193,1.829-0.866
	c0.674-1.06,0.771-2.793,2.312-2.985h3.369c0.289,0.096,0.482,0.288,0.674,0.578l-0.096,0.48c-0.77,0.867-1.059,2.118-2.021,2.696
	c-0.577,0.193-1.252,0-1.638,0.481c-0.192,1.156-0.481,2.407-1.638,2.985c-0.866,0.77-2.116,0.386-3.081,0.096
	c-1.829-0.674-3.659-1.059-5.488-1.637c-0.77-0.192-1.06-1.154-1.926-1.348c-0.77-0.193-1.638,0.386-2.311-0.289
	c-0.386-0.867-0.578-1.444-0.771-2.408c-0.289-0.577-0.482-1.25-0.577-1.925c-0.098-0.577,0-0.963,0.191-1.445l2.503-4.524
	c0.194-0.29,0.386-0.578,0.675-0.675c0.578,0.097,1.252,0.385,1.83,0.675l-0.097,0.287l-2.6,3.949c-0.578,1.252,0,2.695,0.577,3.755
	c0.097,0.097,0.192,0.29,0.289,0.193c-0.097-0.771-0.192-1.54,0-2.407c0.193-0.771,0.674-1.444,1.059-2.119l2.022-2.985
	c0.193-0.481,0.193-1.251-0.192-1.733c-0.866-0.865-2.118-1.155-2.889-2.31c-1.637-2.216-1.83-4.815-2.021-7.608
	c0-0.192-0.192-0.48-0.482-0.577c-0.192-0.097-0.384,0.192-0.48,0.289c-0.482,1.829-0.193,4.044,0.288,5.681
	c0.289,1.252,0.866,2.504,1.444,3.66c0.097,0.191-0.097,0.48-0.288,0.577c-1.348,0.097-2.697,0-3.948-0.192
	c-1.733-0.289-2.986-1.638-4.431-2.696c-0.191-0.097-0.288,0.096-0.385,0.192c0.385,1.926,2.504,3.081,3.178,4.814
	c0.385,1.444,1.83,2.504,2.119,4.045c0,0.192-0.192,0.481-0.385,0.578c-0.481,0.096-0.964-0.193-1.444,0.096
	c-0.098,0.866,0.48,1.732,0.095,2.503c-0.48,0.771-1.154,1.639-2.021,1.639c-1.733-0.579-3.467-1.349-5.2-1.83
	c-1.251-0.097-2.503,0.095-3.659,0.191c-1.155-0.191-1.926-1.251-2.792-1.829c-0.289-0.096-0.578-0.096-0.771,0.097
	c-1.926,1.926-4.044,4.044-6.933,3.948c-0.193,0-0.29-0.193-0.29-0.386v-0.191c1.252-1.157,2.793-2.313,3.371-3.949
	c0.385-1.348,1.54-2.312,2.021-3.563c0.096-0.191-0.096-0.288-0.287-0.385l-0.291,0.193c-1.443,1.443-2.502,3.081-3.562,4.621
	c-1.059,1.061-2.6,1.734-4.237,1.348c-0.192-0.095-0.192-0.384-0.096-0.577c5.971-3.659,6.644-10.207,8.282-16.178
	c1.155-3.948,2.021-7.991,5.103-11.17c4.622-5.103,10.4-8.089,15.504-12.519c0.77-0.674,1.541-1.348,2.503-1.348
	C1728.001,2864.247,1729.928,2865.21,1731.66,2866.654 M1786.646,2909.217c0.48,0.674,0.288,1.733,0.48,2.503
	c0.097,0.578,0.866,1.061,0.481,1.638l-2.118,0.674c-0.386,0-0.193-0.481-0.386-0.674c-0.191-1.252-0.481-2.119-0.866-3.274
	c-0.096-0.673,0.578-1.155,1.059-1.54C1785.777,2908.35,1786.163,2908.928,1786.646,2909.217 M1781.734,2904.883
	c0.771,0.674,1.829,1.156,2.407,2.022c0.096,0.386-0.193,0.771-0.386,1.061c-0.288,0.287-0.674,0.48-1.156,0.48
	c-0.481,0-0.865-0.289-1.155-0.675c-0.481-0.77-1.155-1.444-1.348-2.215C1780.386,2905.076,1781.06,2904.306,1781.734,2904.883
	 M1735.32,2904.113c-0.097,0.963-0.386,1.83-0.771,2.695c-0.287,0.578-1.155,0.386-1.732,0.289
	c-0.578-0.192-1.541-0.289-1.638-1.154c-0.096-0.771,0.289-1.541,0.675-2.119c0.866-0.096,1.926,0.096,2.792-0.096
	C1735.03,2903.729,1735.32,2903.824,1735.32,2904.113"/>
<path fill="#E21B4D" d="M1876.68,2753.701c1.733,0,3.179,0.578,4.333,1.829c1.156,1.156,1.83,2.696,1.83,4.334
	c0,1.733-0.577,3.178-1.83,4.333c-1.154,1.252-2.696,1.83-4.333,1.83c-1.732,0-3.177-0.577-4.43-1.83
	c-1.154-1.155-1.829-2.696-1.829-4.333c0-1.733,0.578-3.178,1.829-4.334C1873.502,2754.375,1874.947,2753.701,1876.68,2753.701
	 M1883.901,2759.864c0-1.927-0.674-3.659-2.118-5.104c-1.444-1.348-3.081-2.118-5.104-2.118s-3.659,0.674-5.104,2.118
	c-1.444,1.445-2.118,3.082-2.118,5.104c0,2.022,0.674,3.658,2.118,5.103c1.444,1.445,3.081,2.119,5.104,2.119
	s3.659-0.674,5.104-2.119C1883.131,2763.619,1883.901,2761.886,1883.901,2759.864 M1878.605,2758.322
	c0,0.579-0.289,1.06-0.866,1.252c-0.289,0.096-0.77,0.193-1.348,0.193h-1.252v-2.889h1.155c0.771,0,1.348,0.096,1.733,0.288
	C1878.413,2757.457,1878.605,2757.745,1878.605,2758.322 M1873.791,2755.916v7.896h1.349v-3.082h1.059
	c0.771,0,1.252,0.096,1.541,0.29c0.481,0.288,0.77,0.866,0.77,1.83v0.578v0.192v0.097v0.096h1.35l-0.097-0.096
	c0-0.097-0.097-0.193-0.097-0.386c0-0.192,0-0.385,0-0.578v-0.578c0-0.385-0.193-0.771-0.385-1.252
	c-0.29-0.385-0.771-0.674-1.349-0.771c0.481-0.096,0.867-0.192,1.155-0.385c0.48-0.289,0.771-0.867,0.771-1.541
	c0-0.963-0.386-1.637-1.253-2.021c-0.48-0.193-1.155-0.29-2.214-0.29H1873.791z"/>
</svg>
