<?xml version="1.0" encoding="utf-8"?>
<!-- Generator: Adobe Illustrator 23.0.3, SVG Export Plug-In . SVG Version: 6.00 Build 0)  -->
<svg version="1.1"
	 id="logosvg.com" xmlns:cc="http://creativecommons.org/ns#" xmlns:dc="http://purl.org/dc/elements/1.1/" xmlns:rdf="http://www.w3.org/1999/02/22-rdf-syntax-ns#"
	 xmlns="http://www.w3.org/2000/svg" xmlns:xlink="http://www.w3.org/1999/xlink" x="0px" y="0px" viewBox="0 0 400 300"
	 style="enable-background:new 0 0 400 300;" xml:space="preserve">
<style type="text/css">
	.st0{fill:#E90606;}
</style>
<path id="logo" class="st0" d="M113.8,102.6l0.1,14.6l-1.6,0c0-1.2-0.3-6-0.2-6.5c0-0.2-0.3-6.7-0.4-7.2l-6.8-0.1l-20.5,0l-7.8,0
	l0,90c0,0.1,0.1,5.9,0.2,7.1c0.8,0.1,8.4,0.6,9.7,0.6l0.5,0v2.4c-0.4,0-0.9,0-1.3,0c-4.3-0.1-11.3-0.5-16.2-0.5
	c-4.9,0-11.7,0.4-16.8,0.5c-0.1,0-1.2,0-1.6,0l0-2.6c0.1,0,0.4,0,0.8,0c2.1-0.1,7.4-0.4,8.8-0.5l0.2,0l0-7.7l0-89.2l-10.3-0.1l-16,0
	c-1.1,0-9.7,0.1-9.7,0.1l-0.2,12.8l-1.6,0l0.1-14.4L23.1,96l0,0c5.4,0.2,25.1,0.4,45.5,0.4c23.8,0,39.1-0.2,45.2-0.4L113.8,102.6z
	 M283.8,200.4c0,0-0.7-3.7-1.6-8c-3.5-17.1-13.6-69.2-15.2-82.1c-0.5-4.4-2-14.3-2-14.3l-6.1,0c0,0-3.1,8.9-5.9,17
	c-1.9,5.5-4.5,12.4-6.5,17.6c-9.9,25.9-20.9,50-20.9,50s-23.5-56-24.7-59.3c-1.3-3.2-8.9-25.4-8.9-25.4l0,0c0,0-4,0.1-6.3,0
	c-0.1,1-1.2,9.7-2.2,16.8c-1.1,6.5-9.8,55-12.8,69.5c-0.8,4.4-3.2,16.8-3.4,18c-2.8,0.3-6,0.6-8.2,0.7c-0.3,0-0.8,0.1-1,0.1v2.5
	c0.3,0,1.6,0.1,2.6,0.1c2.4-0.1,9-0.4,10.3-0.4c4.8,0,8,0.3,12.5,0.4c0.1,0,1.3,0,1.8-0.1v-2.5c-0.4,0-0.9,0-1.1,0
	c-1.3,0-5.9-0.3-8.2-0.6c0.3-1.7,4.4-26.8,6.3-36.8c3.7-18.6,6.3-31.7,6.3-31.7l0.7,1.6l29.5,70.2l5.4,0c0,0,3.1-7.6,6.7-16.1
	c0.1-0.2,0.4-0.8,0.7-1.7c3.8-8.9,22.8-53.8,22.8-53.8s0.2,0.8,0.5,2.3c1.8,8.8,7.9,40.6,9.2,48.2c0.6,3.9,1.2,7.9,1.5,10.3
	c0.5,3.3,0.8,6.6,0.8,7.5c-0.6,0-6.6,0.6-8.9,0.7c-0.3,0-0.9,0-1,0v2.6c0.8,0,1.6,0,2.4,0c4.6-0.1,9.1-0.5,13.7-0.4
	c5.2,0,13.7,0.5,19.1,0.5c0.6,0,1.7-0.1,1.7-0.1v-2.6c-0.3,0-1.7-0.1-2.2-0.1C288.9,200.8,284.8,200.4,283.8,200.4z M118.5,96l0,2.6
	c0.8,0,5.6,0.5,6.7,0.5c0.9,0.1,2.2,0.2,3.1,0.3c0,0.8,0,6.5,0,8.7c0.2,21.1,0,67.8,0,84.3c0,4.8,0,7.9,0,7.9
	c-0.6,0.2-1.9,0.2-3.3,0.3c-1.2,0.1-5.6,0.4-6.5,0.5v2.6c0.4,0,1.1,0.1,1.6,0.1c4.9,0,11.7-0.6,16.8-0.6c5.1,0,11.9,0.6,15.9,0.6
	l0,0c0.3,0,1.2-0.1,1.5-0.1V201h-0.3c-0.2,0-5.3-0.3-6.6-0.4c-0.7,0-3.5-0.3-3.5-0.4c0-0.1,0-0.8,0-2.1c0-1.2,0-3.2,0-5.4
	c0-16.7,0.1-66.1,0.1-85c0-3.7,0-6.6,0-8.2c1.1-0.1,5.7-0.5,7.3-0.7c0.1,0,2.2-0.1,3.1-0.2V96c-5.6,0-12.9,0.4-18.3,0.4
	C130.2,96.4,123.2,96,118.5,96z M375.4,182.2c0,1.7-0.6,8.1-0.7,8.4c-0.2,2.4-0.4,4.9-0.6,6.2c0,0-0.8,0.1-1.1,0.1
	c-1.8,0-7.5,0.2-7.6,0.2l-25.4,0l-17.8-0.3l-0.1-4.9l0-38.4c3.2-0.1,8-0.3,11-0.3c2.5,0,8.4-0.1,11.7-0.1c8,0,15.2,0.1,15.8,0.1
	c1.3,0,3.8,0.1,4.7,0.2c0,0.3,0.1,0.9,0.2,1c0.5,2.9,0.7,5,1.1,7.9c0,0.3,0.1,0.5,0.1,0.7h1.8c0,0,0-1,0-1.7c0-2.3-0.2-6.8-0.2-11.8
	c0-3.5,0.2-8.8,0.2-11.3c0-0.7-0.1-1.2-0.1-1.4l-1.7,0c0,0.6-0.1,1.4-0.1,1.4c-0.1,1.9-0.7,4.3-1.1,6.9c-0.1,0.3-0.2,0.8-0.2,0.8
	c-0.2,0.1-5.4,0.3-5.9,0.3c-0.2,0-7.8,0.2-8,0.2l-29.4-0.1l0-42.3c0,0,3.7-0.1,4.8-0.1c4.2,0,11.1,0,18.1,0
	c10.3,0,20.2,0.1,20.3,0.1c0.1,0,3.1,0.1,3.2,0.1c0.1,0.1,3.9,0.2,4.8,0.2c0,0,0.1,0.3,0.1,0.7c0.4,4.5,0.8,9.8,0.9,11.6l0,0.8
	l1.6,0c0-2.7-0.1-11.2-0.2-16.5c0-1.7,0-3.1,0-3.9v-0.7l0,0c0,0-0.6,0-1.7,0c-3.7,0-13.2,0.1-24.4,0.1c-6.8,0-12.2,0.1-19.2,0.1
	c-4.9,0.1-11.8,0.2-16.1,0.2c-6.8,0-12.4-0.4-15.4-0.4c-1.4,0-2.2,0-2.6,0c0,0,0,2.5,0,2.5c0.3,0,0.8,0.1,1.3,0.1
	c1.7,0.1,4.9,0.4,6.5,0.6c0.3,0.1,0.9,0.1,2.4,0.3c0,0.6,0.1,7,0.1,10.8c0,3.6,0,83.1,0,83.1c0,0.1-0.2,6.4-0.2,6.9
	c-2.7,0.5-7.9,0.7-9.7,0.8h-0.5v2.5c0.3,0,1.4,0,2.1,0c2.9,0,10.2-0.5,17.7-0.5c5.3,0,11.1,0.2,16.9,0.3c7.2,0.1,14.6,0.1,21.1,0.2
	c10.8,0.2,19.6,0.2,22.5,0.2c0,0,0.3-20.1,0.3-21.7L375.4,182.2z"/>
</svg>
