<?xml version="1.0" encoding="utf-8"?>
<!-- Generator: Adobe Illustrator 23.0.3, SVG Export Plug-In . SVG Version: 6.00 Build 0)  -->
<svg version="1.1" id="logosvg.com" xmlns="http://www.w3.org/2000/svg" xmlns:xlink="http://www.w3.org/1999/xlink" x="0px"
	 y="0px" viewBox="0 0 400 300" style="enable-background:new 0 0 400 300;" xml:space="preserve">
<path id="logo" d="M326.8,124.6v51H352c7,0,11.1-1.1,14.1-3.7c3.7-3.3,5.5-9.2,5.5-21.8c0-12.6-1.8-18.5-5.5-21.8
	c-3-2.6-7-3.7-14.1-3.7H326.8z M361.2,150.1c0,11.1-0.7,13.7-3,15.2c-1.5,1.1-3.3,1.5-7,1.5h-14.1v-33.6h14.1c3.7,0,5.5,0,7,1.5
	C360.5,136.4,361.2,139,361.2,150.1z M384.5,186.9h-73.8v-73.8h73.8V186.9z M250.5,133.1v-8.5h43.6v16.3h-9.2v-7.8h-17.7v12.2h14.1
	v8.1h-14.1v13.7h18.1v-8.9h9.2v17.4h-44v-8.5h7v-34H250.5z M210.9,162.3c0,5.5,0.4,9.6,1.1,12.9h10c-0.4-2.6-0.7-7.4-0.7-13.7
	c-0.4-7.4-2.6-8.5-7.8-9.6c5.9-1.1,8.5-3.7,8.5-12.9c0-7.4-1.1-10.4-3.3-12.2c-1.5-1.5-4.1-2.2-8.1-2.2h-31.1v51h10.4v-20h14.4
	c3,0,4.1,0.4,5.2,1.1C210.5,157.5,210.9,158.6,210.9,162.3z M189.8,147.5v-14.1h16.6c2.2,0,3,0.4,3.3,0.7c0.7,0.7,1.5,1.8,1.5,6.3
	s-0.7,5.9-1.5,6.7c-0.4,0.4-1.1,0.7-3.3,0.7L189.8,147.5z M236.8,186.9h-73.9v-73.8h73.8v73.8H236.8z M143.6,167.1v8.5h-35.1v-8.5
	h12.6v-34h-12.6v-8.5h35.1v8.5H131v34H143.6z M84.3,124.6h-9.6l-7,40.3l-8.1-37.3c-0.4-2.6-1.5-3-3.7-3h-5.2c-2.2,0-3.3,0.7-3.7,3
	l-8.1,37.3l-7-40.3H21.4l10,48.4c0.4,2.2,1.1,2.6,3.7,2.6h7c2.2,0,3-0.4,3.7-2.6l7.8-35.1l7.8,35.1c0.4,2.2,1.1,2.6,3.7,2.6h6.7
	c2.2,0,3.3-0.4,3.7-2.6L84.3,124.6z M89.4,186.9H15.5v-73.8h73.8v73.8H89.4z"/>
</svg>
